<svg width="26" height="26" viewBox="0 0 26 26" fill="none" xmlns="http://www.w3.org/2000/svg">
<path d="M18.4173 16.3479C16.9799 17.6345 15.0816 18.4168 13.0007 18.4168C10.9197 18.4168 9.02145 17.6345 7.58398 16.3479V23.8334L12.6788 21.7955C12.7977 21.748 12.8571 21.7242 12.9185 21.7148C12.973 21.7064 13.0283 21.7064 13.0828 21.7148C13.1442 21.7242 13.2036 21.748 13.3225 21.7955L18.4173 23.8334V16.3479Z" fill="#D88059" fill-opacity="0.7"/>
<path d="M13 18.4167C17.4873 18.4167 21.125 14.7791 21.125 10.2917C21.125 5.80443 17.4873 2.16675 13 2.16675C8.51269 2.16675 4.875 5.80443 4.875 10.2917C4.875 14.7791 8.51269 18.4167 13 18.4167Z" fill="#D88059" fill-opacity="0.5"/>
<path d="M7.58333 16.3479V23.8334L12.6781 21.7955C12.797 21.7479 12.8565 21.7242 12.9179 21.7147C12.9723 21.7064 13.0277 21.7064 13.0821 21.7147C13.1435 21.7242 13.203 21.7479 13.3219 21.7955L18.4167 23.8334V16.3479M21.125 10.2917C21.125 14.7791 17.4873 18.4167 13 18.4167C8.51269 18.4167 4.875 14.7791 4.875 10.2917C4.875 5.80443 8.51269 2.16675 13 2.16675C17.4873 2.16675 21.125 5.80443 21.125 10.2917Z" stroke="#D88059" stroke-width="1.5" stroke-linecap="round" stroke-linejoin="round"/>
</svg>
