<svg width="22" height="22" viewBox="0 0 22 22" fill="none" xmlns="http://www.w3.org/2000/svg">
<path fill-rule="evenodd" clip-rule="evenodd" d="M1.83374 11.0002C1.83374 5.93755 5.9378 1.8335 11.0004 1.8335C16.063 1.8335 20.1671 5.93755 20.1671 11.0002C20.1671 16.0628 16.063 20.1668 11.0004 20.1668C5.9378 20.1668 1.83374 16.0628 1.83374 11.0002ZM14.3986 8.51829C14.0406 8.16031 13.4602 8.16031 13.1022 8.51829L10.0837 11.5361L8.89859 10.3516L8.81223 10.2754C8.45263 9.99576 7.93267 10.0212 7.60223 10.3516C7.24425 10.7096 7.24425 11.29 7.60223 11.648L9.43556 13.4813L9.52192 13.5576C9.88152 13.8372 10.4015 13.8118 10.7319 13.4813L14.3986 9.81465L14.4748 9.7283C14.7545 9.3687 14.729 8.84873 14.3986 8.51829Z" fill="#579BEA"/>
</svg>
