<svg width="21" height="20" viewBox="0 0 21 20" fill="none" xmlns="http://www.w3.org/2000/svg">
<path fill-rule="evenodd" clip-rule="evenodd" d="M10.4998 1.66675C5.89746 1.66675 2.1665 5.39771 2.1665 10.0001C2.1665 14.6025 5.89746 18.3334 10.4998 18.3334C15.1022 18.3334 18.8332 14.6025 18.8332 10.0001C18.8332 5.39771 15.1022 1.66675 10.4998 1.66675ZM10.4998 3.33341C14.1817 3.33341 17.1665 6.31818 17.1665 10.0001C17.1665 13.682 14.1817 16.6667 10.4998 16.6667C6.81794 16.6667 3.83317 13.682 3.83317 10.0001C3.83317 6.31818 6.81794 3.33341 10.4998 3.33341ZM13.5891 7.74416C13.2637 7.41872 12.736 7.41872 12.4106 7.74416L9.6665 10.4876L8.58909 9.41083L8.51059 9.3415C8.18368 9.08731 7.71098 9.11042 7.41058 9.41083C7.08514 9.73626 7.08514 10.2639 7.41058 10.5893L9.07725 12.256L9.15575 12.3253C9.48266 12.5795 9.95536 12.5564 10.2558 12.256L13.5891 8.92267L13.6584 8.84416C13.9126 8.51725 13.8895 8.04456 13.5891 7.74416Z" fill="#579BEA"/>
</svg>
