<svg width="20" height="21" viewBox="0 0 20 21" fill="none" xmlns="http://www.w3.org/2000/svg">
<path fill-rule="evenodd" clip-rule="evenodd" d="M17.4922 9.55158C17.0215 6.16486 14.3426 3.512 10.9515 3.07443C8.33597 2.73694 5.79576 3.78166 4.16728 5.72537L4.16679 4.66628L4.16118 4.5691C4.11304 4.15465 3.76082 3.83295 3.33346 3.83295C2.87322 3.83295 2.50012 4.20605 2.50012 4.66628V7.99962L2.50573 8.0968C2.55387 8.51125 2.90609 8.83295 3.33346 8.83295H6.66679L6.76397 8.82734C7.17842 8.77921 7.50012 8.42698 7.50012 7.99962L7.49452 7.90243C7.44638 7.48798 7.09415 7.16628 6.66679 7.16628L5.1585 7.16673C6.40391 5.41421 8.53687 4.44335 10.7382 4.72739C13.384 5.06879 15.4742 7.13861 15.8414 9.78099C15.9047 10.2368 16.3256 10.555 16.7815 10.4917C17.2374 10.4283 17.5555 10.0074 17.4922 9.55158ZM9.26202 16.2718C6.61617 15.9304 4.52605 13.8606 4.15884 11.2182C4.09549 10.7624 3.67458 10.4442 3.21873 10.5076C2.76287 10.5709 2.44468 10.9918 2.50803 11.4477C2.97869 14.8344 5.65758 17.4872 9.04873 17.9248C11.6646 18.2623 14.2052 17.2173 15.8336 15.273L15.8334 16.333L15.839 16.4301C15.8872 16.8446 16.2394 17.1663 16.6668 17.1663C17.127 17.1663 17.5001 16.7932 17.5001 16.333V12.9996L17.4945 12.9024C17.4464 12.488 17.0941 12.1663 16.6668 12.1663H13.3334L13.2363 12.1719C12.8218 12.22 12.5001 12.5723 12.5001 12.9996L12.5057 13.0968C12.5538 13.5113 12.9061 13.833 13.3334 13.833L14.8411 13.8333C13.5956 15.5853 11.463 16.5558 9.26202 16.2718Z" fill="#0B0B0B"/>
<path d="M9.99967 8.83301C9.55765 8.83301 9.13372 9.0086 8.82116 9.32116C8.5086 9.63372 8.33301 10.0576 8.33301 10.4997C8.33301 10.9417 8.5086 11.3656 8.82116 11.6782C9.13372 11.9907 9.55765 12.1663 9.99967 12.1663C10.4417 12.1663 10.8656 11.9907 11.1782 11.6782C11.4907 11.3656 11.6663 10.9417 11.6663 10.4997C11.6663 10.0576 11.4907 9.63372 11.1782 9.32116C10.8656 9.0086 10.4417 8.83301 9.99967 8.83301Z" fill="#0B0B0B"/>
</svg>
