<svg width="21" height="21" viewBox="0 0 21 21" fill="none" xmlns="http://www.w3.org/2000/svg">
<path fill-rule="evenodd" clip-rule="evenodd" d="M10.6752 13.8337L10.6752 13.8337C10.6582 13.8337 10.6412 13.8332 10.6243 13.8322C10.5135 13.8257 10.4092 13.798 10.3149 13.7532C10.2519 13.7237 10.1931 13.6868 10.1404 13.6436C10.1205 13.6272 10.1014 13.61 10.0833 13.5919L10.0816 13.5902L10.0703 13.5788L6.75 10.2586C6.41667 9.92522 6.41667 9.40022 6.75 9.07522C7.075 8.74189 7.6 8.74189 7.93333 9.07439L9.84147 10.9825V3.00033C9.84147 2.53366 10.2081 2.16699 10.6748 2.16699C11.1331 2.16699 11.5081 2.53366 11.5081 3.00033V10.9675L13.4086 9.06708C13.7336 8.73375 14.2586 8.73375 14.5919 9.06625C14.9169 9.39125 14.9169 9.91625 14.5919 10.2496L11.3378 13.5036C11.1853 13.7038 10.9447 13.8335 10.6752 13.8337ZM9.49629 15.9885C9.80885 15.6759 10.2328 15.5003 10.6748 15.5003C11.1168 15.5003 11.5408 15.6759 11.8533 15.9885C12.1659 16.301 12.3415 16.725 12.3415 17.167C12.3415 17.609 12.1659 18.0329 11.8533 18.3455C11.5408 18.6581 11.1168 18.8337 10.6748 18.8337C10.2328 18.8337 9.80885 18.6581 9.49629 18.3455C9.18373 18.0329 9.00814 17.609 9.00814 17.167C9.00814 16.725 9.18373 16.301 9.49629 15.9885Z" fill="#0B0B0B"/>
</svg>
