<svg xmlns="http://www.w3.org/2000/svg" width="35" height="35" viewBox="0 0 35 35" fill="none">
  <g filter="url(#filter0_b_2574_338)">
    <path d="M9.5122 22.1663C9.44614 21.8796 9.40568 21.5781 9.37942 21.2576C9.35251 20.9293 9.3394 20.5614 9.33301 20.1487L11.4601 18.8374L11.5315 18.7933C11.8308 18.608 12.1318 18.4217 12.4709 18.3347C12.7669 18.2588 13.0753 18.2433 13.3775 18.2891C13.7236 18.3415 14.0419 18.4967 14.3584 18.651L14.4339 18.6878L14.9135 18.9205C15.3941 19.1536 15.4514 19.1691 15.4897 19.1742C15.5544 19.1827 15.6201 19.1772 15.6824 19.1581C15.7193 19.1468 15.7732 19.122 16.2082 18.8123L18.4828 17.1932L18.5673 17.1329C18.9161 16.8834 19.2662 16.633 19.6701 16.5256C20.0219 16.432 20.3912 16.4241 20.7467 16.5027C21.1548 16.593 21.5152 16.8283 21.8744 17.0628L21.9614 17.1195L25.6663 19.5266C25.664 20.2012 25.6544 20.7726 25.6146 21.2576C25.6042 21.3841 25.5917 21.5076 25.5762 21.6285L20.9701 18.636C20.4594 18.3042 20.3952 18.2791 20.3535 18.2699C20.2824 18.2541 20.2086 18.2557 20.1382 18.2744C20.0969 18.2854 20.0339 18.3132 19.5378 18.6663L17.2632 20.2855L17.1894 20.3381C16.882 20.5579 16.5729 20.7788 16.2157 20.8883C15.9042 20.9837 15.5757 21.0112 15.2525 20.9687C14.8821 20.92 14.5404 20.7535 14.2006 20.5877L14.1191 20.548L13.6394 20.3153C13.1932 20.0988 13.1405 20.084 13.1045 20.0786C13.0441 20.0694 12.9824 20.0725 12.9232 20.0877C12.888 20.0967 12.8371 20.1167 12.4149 20.3769L9.5122 22.1663Z" fill="white"/>
    <path d="M16.5892 14.6431C16.5892 15.6427 15.7764 16.4531 14.7737 16.4531C13.7709 16.4531 12.9581 15.6427 12.9581 14.6431C12.9581 13.6434 13.7709 12.833 14.7737 12.833C15.7764 12.833 16.5892 13.6434 16.5892 14.6431Z" fill="white"/>
    <path fill-rule="evenodd" clip-rule="evenodd" d="M16.009 9.33301H18.9904C19.9738 9.333 20.767 9.33299 21.4094 9.38547C22.0707 9.43951 22.6516 9.55367 23.1891 9.82752C24.0428 10.2625 24.7369 10.9566 25.1718 11.8103C25.4457 12.3477 25.5598 12.9286 25.6139 13.59C25.6664 14.2323 25.6664 15.0255 25.6663 16.009V18.9904C25.6664 19.9738 25.6664 20.767 25.6139 21.4094C25.5598 22.0707 25.4457 22.6516 25.1718 23.1891C24.7369 24.0428 24.0428 24.7369 23.1891 25.1718C22.6516 25.4457 22.0707 25.5598 21.4094 25.6139C20.767 25.6664 19.9738 25.6664 18.9904 25.6663H16.009C15.0255 25.6664 14.2323 25.6664 13.59 25.6139C12.9286 25.5598 12.3477 25.4457 11.8103 25.1718C10.9566 24.7369 10.2625 24.0428 9.82752 23.1891C9.55367 22.6516 9.43951 22.0707 9.38547 21.4094C9.33299 20.767 9.333 19.9738 9.33301 18.9904V16.009C9.333 15.0255 9.33299 14.2323 9.38547 13.59C9.43951 12.9286 9.55367 12.3477 9.82752 11.8103C10.2625 10.9566 10.9566 10.2625 11.8103 9.82752C12.3477 9.55367 12.9286 9.43951 13.59 9.38547C14.2323 9.33299 15.0255 9.333 16.009 9.33301ZM13.7378 11.1943C13.1886 11.2391 12.8732 11.3228 12.6342 11.4445C12.122 11.7055 11.7055 12.122 11.4445 12.6342C11.3228 12.8732 11.2391 13.1886 11.1943 13.7378C11.1485 14.2975 11.1478 15.0165 11.1478 16.0478V18.9515C11.1478 19.9829 11.1485 20.7018 11.1943 21.2616C11.2391 21.8107 11.3228 22.1262 11.4445 22.3652C11.7055 22.8774 12.122 23.2938 12.6342 23.5548C12.8732 23.6766 13.1886 23.7602 13.7378 23.8051C14.2975 23.8508 15.0165 23.8515 16.0478 23.8515H18.9515C19.9829 23.8515 20.7018 23.8508 21.2616 23.8051C21.8107 23.7602 22.1262 23.6766 22.3652 23.5548C22.8774 23.2938 23.2938 22.8774 23.5548 22.3652C23.6766 22.1262 23.7602 21.8107 23.8051 21.2616C23.8508 20.7018 23.8515 19.9829 23.8515 18.9515V16.0478C23.8515 15.0165 23.8508 14.2975 23.8051 13.7378C23.7602 13.1886 23.6766 12.8732 23.5548 12.6342C23.2938 12.122 22.8774 11.7055 22.3652 11.4445C22.1262 11.3228 21.8107 11.2391 21.2616 11.1943C20.7018 11.1485 19.9829 11.1478 18.9515 11.1478H16.0478C15.0165 11.1478 14.2975 11.1485 13.7378 11.1943Z" fill="white"/>
  </g>
  <defs>
    <filter id="filter0_b_2574_338" x="-4" y="-4" width="43" height="43" filterUnits="userSpaceOnUse" color-interpolation-filters="sRGB">
      <feFlood flood-opacity="0" result="BackgroundImageFix"/>
      <feGaussianBlur in="BackgroundImageFix" stdDeviation="2"/>
      <feComposite in2="SourceAlpha" operator="in" result="effect1_backgroundBlur_2574_338"/>
      <feBlend mode="normal" in="SourceGraphic" in2="effect1_backgroundBlur_2574_338" result="shape"/>
    </filter>
  </defs>
</svg>