<svg width="86" height="85" viewBox="0 0 86 85" fill="none" xmlns="http://www.w3.org/2000/svg">
<path opacity="0.12" d="M11.125 27.625C11.125 21.6744 11.125 18.6992 12.2831 16.4264C13.3017 14.4271 14.9271 12.8017 16.9264 11.7831C19.1992 10.625 22.1744 10.625 28.125 10.625H57.875C63.8256 10.625 66.8008 10.625 69.0737 11.7831C71.0729 12.8017 72.6983 14.4271 73.7169 16.4264C74.875 18.6992 74.875 21.6744 74.875 27.625V57.375C74.875 63.3256 74.875 66.3008 73.7169 68.5737C72.6983 70.5729 71.0729 72.1983 69.0737 73.2169C66.8008 74.375 63.8256 74.375 57.875 74.375H28.125C22.1744 74.375 19.1992 74.375 16.9264 73.2169C14.9271 72.1983 13.3017 70.5729 12.2831 68.5737C11.125 66.3008 11.125 63.3256 11.125 57.375V27.625Z" fill="#579BEA"/>
<path d="M60.7083 31.875L41.4618 51.1215C40.7605 51.8228 40.4099 52.1735 40.0056 52.3048C39.6499 52.4204 39.2668 52.4204 38.9111 52.3048C38.5068 52.1735 38.1561 51.8228 37.4549 51.1215L30.8368 44.5035C30.1355 43.8022 29.7849 43.4516 29.3806 43.3202C29.0249 43.2046 28.6418 43.2046 28.2861 43.3202C27.8818 43.4516 27.5311 43.8022 26.8299 44.5035L11.125 60.2083M60.7083 31.875H46.5417M60.7083 31.875V46.0417M28.125 74.375H57.875C63.8256 74.375 66.8008 74.375 69.0737 73.2169C71.0729 72.1983 72.6983 70.5729 73.7169 68.5737C74.875 66.3008 74.875 63.3256 74.875 57.375V27.625C74.875 21.6744 74.875 18.6992 73.7169 16.4264C72.6983 14.4271 71.0729 12.8017 69.0737 11.7831C66.8008 10.625 63.8256 10.625 57.875 10.625H28.125C22.1744 10.625 19.1992 10.625 16.9264 11.7831C14.9271 12.8017 13.3017 14.4271 12.2831 16.4264C11.125 18.6992 11.125 21.6744 11.125 27.625V57.375C11.125 63.3256 11.125 66.3008 12.2831 68.5737C13.3017 70.5729 14.9271 72.1983 16.9264 73.2169C19.1992 74.375 22.1744 74.375 28.125 74.375Z" stroke="#579BEA" stroke-width="3.54167" stroke-linecap="round" stroke-linejoin="round"/>
</svg>
