<svg width="132" height="34" viewBox="0 0 132 34" fill="none" xmlns="http://www.w3.org/2000/svg">
<rect x="0.656612" y="0.656612" width="130.193" height="32.1926" rx="2.58993" stroke="#0B0B0B" stroke-width="1.31322"/>
<path d="M14.6706 23.2529V10.6929L12.5306 18.5529H10.8706L8.7306 10.6929V23.2529H7.1306V9.25293H9.9506L11.7706 16.4129L13.5706 9.25293H16.3306V23.2529H14.6706ZM25.7483 23.2529L24.9883 19.7129H21.0883L20.3083 23.2529H18.5283L21.9083 9.25293H24.2083L27.5283 23.2529H25.7483ZM23.0283 10.5729L21.4083 18.2129H24.6683L23.0283 10.5729ZM32.7376 23.2529C31.5776 23.2529 30.6843 22.9729 30.0576 22.4129C29.4443 21.8396 29.1376 20.9863 29.1376 19.8529V12.6529C29.1376 11.5196 29.4443 10.6729 30.0576 10.1129C30.6843 9.5396 31.5776 9.25293 32.7376 9.25293H35.1776V10.7729H32.5376C32.0443 10.7729 31.6443 10.9196 31.3376 11.2129C31.031 11.5063 30.8776 11.8596 30.8776 12.2729V20.2329C30.8776 20.6463 31.031 20.9996 31.3376 21.2929C31.6443 21.5863 32.0443 21.7329 32.5376 21.7329H35.1776V23.2529H32.7376ZM36.8775 23.2529V21.7929H38.2775V10.7129H36.8775V9.25293H41.4175V10.7129H40.0175V21.7929H41.4175V23.2529H36.8775ZM56.2404 14.6529C56.2404 15.7329 55.9538 16.5329 55.3804 17.0529C54.8071 17.5596 53.9604 17.8129 52.8404 17.8129H50.9604V23.2529H49.2204V9.25293H52.8004C53.9338 9.25293 54.7871 9.50626 55.3604 10.0129C55.9471 10.5063 56.2404 11.2929 56.2404 12.3729V14.6529ZM54.5004 12.1929C54.5004 11.6863 54.3804 11.3196 54.1404 11.0929C53.9138 10.8663 53.5471 10.7529 53.0404 10.7529H50.9604V16.3129H53.0404C53.5471 16.3129 53.9138 16.1996 54.1404 15.9729C54.3804 15.7329 54.5004 15.3596 54.5004 14.8529V12.1929ZM59.0447 23.2529V9.25293H60.7847V21.7329H65.2447V23.2529H59.0447ZM73.2678 23.2529L72.5078 19.7129H68.6078L67.8278 23.2529H66.0478L69.4278 9.25293H71.7278L75.0478 23.2529H73.2678ZM70.5478 10.5729L68.9278 18.2129H72.1878L70.5478 10.5729ZM79.6717 10.7729V23.2529H77.9317V10.7729H74.8517V9.25293H82.7517V10.7729H79.6717ZM86.4878 10.7129V15.4929H90.8078V16.9529H86.4878V23.2529H84.7478V9.25293H91.3078V10.7129H86.4878ZM101.588 19.8529C101.588 20.9863 101.275 21.8396 100.648 22.4129C100.035 22.9729 99.1479 23.2529 97.9879 23.2529H97.3079C96.1479 23.2529 95.2546 22.9729 94.6279 22.4129C94.0146 21.8396 93.7079 20.9863 93.7079 19.8529V12.6529C93.7079 11.5196 94.0146 10.6729 94.6279 10.1129C95.2546 9.5396 96.1479 9.25293 97.3079 9.25293H97.9879C99.1479 9.25293 100.035 9.5396 100.648 10.1129C101.275 10.6729 101.588 11.5196 101.588 12.6529V19.8529ZM99.8479 12.2729C99.8479 11.8596 99.6946 11.5063 99.3879 11.2129C99.0813 10.9196 98.6813 10.7729 98.1879 10.7729H97.1079C96.6146 10.7729 96.2146 10.9196 95.9079 11.2129C95.6013 11.5063 95.4479 11.8596 95.4479 12.2729V20.2329C95.4479 20.6463 95.6013 20.9996 95.9079 21.2929C96.2146 21.5863 96.6146 21.7329 97.1079 21.7329H98.1879C98.6813 21.7329 99.0813 21.5863 99.3879 21.2929C99.6946 20.9996 99.8479 20.6463 99.8479 20.2329V12.2729ZM108.307 17.4529H106.527V23.2529H104.787V9.25293H108.367C109.5 9.25293 110.354 9.50626 110.927 10.0129C111.514 10.5063 111.807 11.2929 111.807 12.3729V14.2929C111.807 15.7996 111.207 16.7396 110.007 17.1129L112.787 23.2529H110.887L108.307 17.4529ZM110.067 12.1929C110.067 11.6863 109.947 11.3196 109.707 11.0929C109.48 10.8663 109.114 10.7529 108.607 10.7529H106.527V15.9529H108.607C109.114 15.9529 109.48 15.8396 109.707 15.6129C109.947 15.3729 110.067 14.9996 110.067 14.4929V12.1929ZM122.717 23.2529V10.6929L120.577 18.5529H118.917L116.777 10.6929V23.2529H115.177V9.25293H117.997L119.817 16.4129L121.617 9.25293H124.377V23.2529H122.717Z" fill="#0B0B0B"/>
</svg>
