<svg width="21" height="21" viewBox="0 0 21 21" fill="none" xmlns="http://www.w3.org/2000/svg">
<path fill-rule="evenodd" clip-rule="evenodd" d="M15.9146 12.7615C16.0646 12.9114 16.2814 13.003 16.5065 13.003L16.489 12.9772C16.7058 12.9772 16.9225 12.8856 17.0809 12.7357H17.0893C17.4144 12.4109 17.4144 11.8779 17.0893 11.5615V11.5623L13.7544 8.23115C13.4292 7.90637 12.8956 7.90637 12.5788 8.23948L9.24388 11.5706C8.91122 11.8954 8.91122 12.4201 9.24472 12.7532C9.56987 13.078 10.0951 13.078 10.4286 12.7532V12.7615L12.3376 10.8489V14.6685C12.3376 15.5846 11.5872 16.3341 10.6701 16.3341H5.66771C5.20083 16.3341 4.83398 16.7005 4.83398 17.1669C4.83398 17.6249 5.20083 17.9997 5.66771 17.9997H10.6701C12.5043 17.9997 14.005 16.5007 14.005 14.6685V10.8483L15.9146 12.7615ZM15.9146 8.59758C16.0646 8.74748 16.2814 8.83908 16.5065 8.83908L16.4898 8.8141C16.7066 8.8141 16.9234 8.7225 17.0818 8.57259H17.0901C17.4153 8.24781 17.4153 7.71483 17.0901 7.39837V7.4067L13.7552 4.07557C13.43 3.75078 12.8965 3.75078 12.5796 4.08389L9.24472 7.41503C8.91122 7.73981 8.91122 8.26446 9.24472 8.59758C9.56987 8.92236 10.0951 8.92236 10.4286 8.59758L13.1716 5.84939L15.9146 8.59758Z" fill="#0B0B0B"/>
</svg>
