<?xml version="1.0" standalone="no"?>
<!DOCTYPE svg PUBLIC "-//W3C//DTD SVG 20010904//EN"
 "http://www.w3.org/TR/2001/REC-SVG-20010904/DTD/svg10.dtd">
<svg version="1.0" xmlns="http://www.w3.org/2000/svg"
 width="225.000000pt" height="225.000000pt" viewBox="0 0 225.000000 225.000000"
 preserveAspectRatio="xMidYMid meet">

<g transform="translate(0.000000,225.000000) scale(0.100000,-0.100000)"
fill="#000000" stroke="none">
<path d="M905 2201 c-111 -24 -177 -47 -270 -93 -307 -153 -526 -443 -590
-781 -19 -102 -19 -302 0 -404 84 -440 419 -780 860 -874 123 -26 328 -26 445
0 450 100 788 455 860 903 20 122 8 341 -24 458 -116 413 -443 715 -864 796
-102 19 -316 17 -417 -5z m701 -591 c132 -77 173 -106 176 -123 2 -12 1 -110
-2 -217 l-5 -195 -170 -97 c-93 -54 -178 -98 -187 -98 -10 0 -47 16 -83 36
l-65 36 0 88 0 89 70 -40 c38 -22 76 -39 83 -37 7 2 56 28 110 58 l97 55 0
127 0 127 -95 56 c-52 30 -101 58 -108 61 -8 3 -62 -23 -120 -57 l-107 -62 0
-332 c0 -304 -1 -333 -17 -347 -10 -9 -79 -51 -153 -94 -169 -97 -182 -104
-199 -104 -8 0 -92 45 -187 101 -131 76 -174 106 -176 122 -2 12 -1 110 2 217
l5 194 170 98 c94 54 179 98 189 98 11 0 48 -17 83 -37 l63 -37 0 -83 c0 -46
-3 -83 -7 -83 -3 0 -34 16 -69 35 -34 19 -68 35 -76 34 -7 0 -56 -26 -108 -58
l-95 -57 0 -129 0 -129 104 -59 104 -59 41 23 c23 12 71 40 109 62 l67 39 0
333 c0 304 1 333 18 347 28 25 335 198 350 198 8 0 93 -45 188 -100z"/>
</g>
</svg>
