<svg width="21" height="21" viewBox="0 0 21 21" fill="none" xmlns="http://www.w3.org/2000/svg">
<path fill-rule="evenodd" clip-rule="evenodd" d="M13.3648 7.40692L13.1214 7.6357C12.8016 7.94761 12.5012 8.28663 12.2245 8.64805L12.0823 8.83921L12.0532 8.79733C11.6746 8.2836 11.2452 7.80778 10.7706 7.37739L10.6485 7.26097C9.4004 6.12721 7.6034 5.80804 6.03391 6.45801C4.39902 7.13506 3.33301 8.73033 3.33301 10.4999C3.33301 12.2694 4.39902 13.8647 6.03391 14.5417C7.6688 15.2188 9.55055 14.8442 10.8016 13.5928L11.0451 13.364C11.3649 13.0521 11.6652 12.7131 11.942 12.3517L12.0832 12.1596L12.1132 12.2024C12.4918 12.7161 12.9213 13.1919 13.3958 13.6223L13.5454 13.7649C14.5627 14.688 15.9802 15.0634 17.3328 14.7867V12.9749C16.3834 13.3107 15.3197 13.0738 14.6019 12.3558L14.3642 12.1313C13.8999 11.6756 13.5023 11.1799 13.1705 10.6459L13.0829 10.4992L13.1702 10.3544C13.5561 9.73264 14.0273 9.16679 14.5709 8.6738L14.7043 8.54889C15.4417 7.90186 16.4385 7.70895 17.3328 8.02515V6.21316C15.9119 5.92317 14.4158 6.35561 13.3648 7.40692ZM9.5644 8.6443L9.82392 8.88953C10.2719 9.32964 10.6654 9.8215 10.9962 10.3545L11.0826 10.4992L10.9962 10.6456C10.6103 11.2674 10.139 11.8333 9.59541 12.3263L9.46201 12.4512C8.68877 13.1297 7.63022 13.3088 6.70378 12.9252C5.72285 12.5189 5.08324 11.5618 5.08324 10.5001C5.08324 9.43834 5.72285 8.48118 6.70378 8.07495C7.68472 7.66872 8.81377 7.89344 9.5644 8.6443Z" fill="#0B0B0B"/>
</svg>
