<svg width="20" height="21" viewBox="0 0 20 21" fill="none" xmlns="http://www.w3.org/2000/svg">
<circle cx="10" cy="10.5" r="10" fill="#35655F"/>
<path d="M6.22519 6.87067L6.11228 6.75066C6.26415 6.59362 6.42514 6.44571 6.59441 6.30771C7.57368 5.51038 8.80037 5.08182 10.0618 5.09635C11.3231 5.11087 12.5397 5.56757 13.5004 6.38724C13.6664 6.52882 13.824 6.68004 13.9724 6.8401L13.8595 6.96011C13.7115 6.7997 13.5539 6.64846 13.3875 6.50725C12.371 5.64362 11.0647 5.20054 9.73403 5.2681C8.40339 5.33566 7.14835 5.90879 6.22406 6.87096L6.22519 6.87067ZM14.4114 9.71634C14.3914 9.60444 14.3672 9.49425 14.3388 9.38575C14.3253 9.33282 14.3106 9.28018 14.2942 9.2281C14.2612 9.11658 14.2234 9.00761 14.1813 8.90034C14.1615 8.84911 14.1412 8.79873 14.1192 8.74863C13.926 8.29978 13.6613 7.88539 13.3356 7.52166L13.2272 7.63771C13.5369 7.98513 13.7888 8.38031 13.9733 8.80807C13.995 8.85817 14.0159 8.90855 14.0354 8.95978C14.0749 9.06167 14.1104 9.16545 14.1421 9.27112C14.1579 9.3232 14.1725 9.37613 14.1867 9.42905C14.2132 9.53208 14.2363 9.63652 14.2553 9.74238C14.2654 9.79587 14.2739 9.84965 14.2818 9.90427C14.3405 10.3151 14.3405 10.7323 14.2818 11.1431C14.2739 11.1975 14.2654 11.2513 14.2553 11.3047C14.2364 11.411 14.2134 11.5156 14.1861 11.6186C14.1725 11.6717 14.1579 11.7241 14.1421 11.776C14.1104 11.8813 14.0749 11.9851 14.0354 12.0873C14.0159 12.1386 13.995 12.189 13.9733 12.2388C13.639 13.0176 13.0845 13.6811 12.3782 14.1473C11.6719 14.6136 10.8449 14.862 9.99929 14.862C9.1537 14.862 8.32664 14.6136 7.62037 14.1473C6.91409 13.6811 6.35956 13.0176 6.02533 12.2388C6.0036 12.189 5.98271 12.1386 5.96323 12.0873C5.92371 11.9853 5.88815 11.8815 5.85653 11.776C5.84072 11.7239 5.82604 11.6715 5.81249 11.6186C5.78539 11.5156 5.76234 11.411 5.74333 11.3047C5.73317 11.2513 5.7247 11.1975 5.7168 11.1431C5.65809 10.7323 5.65809 10.3151 5.7168 9.90427C5.7247 9.84965 5.73317 9.79587 5.74333 9.74238C5.76225 9.63652 5.78539 9.53208 5.81193 9.42905C5.82604 9.37613 5.84016 9.3232 5.85653 9.27112C5.88815 9.16583 5.92371 9.06205 5.96323 8.95978C5.98271 8.90855 6.0036 8.85817 6.02533 8.80807C6.22618 8.34184 6.50708 7.91458 6.85524 7.54572L6.74741 7.43024C6.3831 7.81518 6.08927 8.26146 5.87939 8.74863C5.85738 8.79873 5.83705 8.84911 5.81786 8.90034C5.7758 9.00761 5.73797 9.11658 5.70494 9.2281C5.68914 9.28018 5.67389 9.33282 5.66034 9.38575C5.63193 9.49443 5.60774 9.60463 5.5878 9.71634C5.57764 9.77011 5.56888 9.82361 5.56126 9.87823C5.49953 10.3058 5.49953 10.7401 5.56126 11.1678C5.56879 11.2225 5.57764 11.2766 5.5878 11.3302C5.60774 11.4421 5.63193 11.5523 5.66034 11.6608C5.67446 11.7135 5.68857 11.7664 5.70494 11.8185C5.73797 11.9294 5.7758 12.0389 5.81786 12.1462C5.83762 12.1972 5.85794 12.2475 5.87996 12.2974C6.2259 13.1054 6.80059 13.7939 7.53287 14.2778C8.26516 14.7616 9.12288 15.0195 9.99986 15.0195C10.8768 15.0195 11.7346 14.7616 12.4668 14.2778C13.1991 13.7939 13.7738 13.1054 14.1198 12.2974C14.1418 12.2475 14.1621 12.1966 14.1819 12.1459C14.2234 12.0384 14.2612 11.9294 14.2948 11.8185C14.3106 11.7664 14.3253 11.7135 14.3394 11.6608C14.3678 11.5521 14.392 11.4419 14.4119 11.3302C14.4221 11.2764 14.4309 11.2223 14.4385 11.1678C14.5002 10.7401 14.5002 10.3058 14.4385 9.87823C14.432 9.82361 14.4218 9.77011 14.4116 9.71634H14.4114ZM13.9577 14.3689L14.9965 15.2676L15.4239 14.7714L14.3862 13.873L13.9577 14.3689ZM13.3384 3.22656C12.392 2.78856 11.3688 2.54168 10.3273 2.5V3.15637C11.3766 3.20183 12.4038 3.4741 13.3384 3.95453V3.22656ZM9.67354 2.50085C8.63198 2.54226 7.60873 2.78885 6.66216 3.22656V3.95453C7.59689 3.47407 8.62412 3.2018 9.67354 3.15637V2.50085ZM4.05614 14.8388L3.93476 14.9353L3.55029 15.2407L3.54323 15.2463C3.36075 14.9963 3.19279 14.736 3.04021 14.4666C2.88659 14.1956 2.74898 13.9159 2.62808 13.6288C2.6069 13.579 2.58602 13.528 2.56597 13.4773C2.47414 13.2477 2.39284 13.0125 2.32208 12.7717C2.30684 12.7194 2.29216 12.667 2.27776 12.6141C2.21453 12.3797 2.16175 12.1414 2.1194 11.8991C2.11009 11.8456 2.10106 11.7916 2.09287 11.7369C1.9699 10.9323 1.96904 10.1137 2.09033 9.30876C2.09852 9.2547 2.10755 9.20064 2.11686 9.14686C2.15808 8.90496 2.21049 8.66655 2.27409 8.43163C2.28821 8.3787 2.30232 8.32577 2.31841 8.27341C2.38785 8.03302 2.46849 7.79715 2.56033 7.56581C2.58037 7.51515 2.60069 7.46477 2.62186 7.41439C2.8997 6.7524 3.26515 6.13093 3.70837 5.56672C3.84273 5.39463 3.98387 5.22839 4.13179 5.068C4.19972 4.9946 4.26879 4.92262 4.33898 4.85205C4.41614 4.77468 4.49471 4.6992 4.57469 4.62561C4.65467 4.55203 4.73634 4.47966 4.81971 4.40852C5.18205 4.09835 5.57126 3.82119 5.98271 3.58036V4.35163C5.7334 4.51533 5.49424 4.69407 5.26656 4.88686C5.14142 4.99309 5.02013 5.1031 4.9027 5.21688C4.86337 5.25462 4.8246 5.29292 4.7864 5.3318C4.73333 5.38529 4.68139 5.43963 4.63002 5.49482C4.53799 5.59332 4.44907 5.69427 4.36326 5.79768C4.30963 5.86202 4.25703 5.92731 4.20546 5.99354C3.80752 6.50457 3.47864 7.06607 3.22736 7.66346L3.24034 7.66884L4.09142 8.01754C4.14223 7.89697 4.197 7.77762 4.25571 7.6595C4.44045 7.28613 4.66131 6.93186 4.91512 6.60179C5.04724 6.42806 5.18859 6.26158 5.33854 6.10307L5.8362 6.52905C5.68557 6.68694 5.54419 6.85345 5.41278 7.02776C5.1935 7.31682 5.00201 7.62605 4.84088 7.95131C4.78922 8.0549 4.74152 8.15963 4.69692 8.26548C4.67546 8.31586 4.65495 8.36634 4.63538 8.41691C4.57535 8.57032 4.52209 8.72551 4.47561 8.88251C4.46036 8.93487 4.44569 8.98723 4.43185 9.04016C4.39102 9.19507 4.35667 9.35188 4.32882 9.51057C4.31951 9.56406 4.31076 9.61812 4.30313 9.67218C4.22203 10.2368 4.2226 10.8102 4.30483 11.3747C4.31301 11.429 4.32148 11.4831 4.33136 11.5368C4.35903 11.6948 4.39356 11.8514 4.43496 12.0067C4.44907 12.0596 4.46319 12.112 4.47956 12.1643C4.52585 12.3209 4.5793 12.4757 4.6399 12.6285C4.65937 12.6795 4.68026 12.7298 4.702 12.7797C4.7562 12.9078 4.81566 13.0347 4.8804 13.1603L4.29975 13.4612C4.22654 13.3195 4.15898 13.175 4.09707 13.0276L3.24119 13.378L3.23216 13.3817C3.45044 13.8972 3.7267 14.3861 4.05557 14.8388H4.05614ZM2.94875 8.45116L2.96145 8.45484L3.8464 8.70448C3.89928 8.52333 3.96035 8.34473 4.0296 8.16868L3.17796 7.81998L3.16526 7.8146C3.08377 8.02235 3.0116 8.23454 2.94875 8.45116ZM2.76329 9.25272L2.77543 9.2547L3.68494 9.40415C3.71636 9.22168 3.75588 9.04101 3.8035 8.86213L2.91713 8.61277L2.90443 8.60909C2.84835 8.82005 2.8013 9.03459 2.76329 9.25272ZM2.66082 10.1893H3.59715C3.60787 9.97947 3.6282 9.77191 3.65812 9.56661L2.74776 9.41745L2.73591 9.41547C2.69707 9.67187 2.672 9.93019 2.66082 10.1893ZM2.74804 11.6305L3.66179 11.4805C3.62999 11.2699 3.60863 11.058 3.59771 10.8448H2.66082C2.67279 11.1087 2.69889 11.3717 2.73901 11.6328L2.74804 11.6305ZM2.91741 12.4346L3.80829 12.1836C3.76087 12.005 3.72079 11.8241 3.68889 11.6424L2.77514 11.7924L2.7647 11.7938C2.80234 12.0118 2.84995 12.2263 2.90753 12.4375L2.91741 12.4346ZM3.17937 13.2271L4.0361 12.8767C3.96722 12.7016 3.90606 12.5233 3.85261 12.3418L2.96145 12.5929L2.95129 12.596C3.01508 12.8122 3.0881 13.0238 3.17034 13.2308L3.17937 13.2271ZM17.9992 10.5176C17.9993 10.9263 17.9683 11.3344 17.9063 11.7384C17.8981 11.7924 17.8896 11.8465 17.8803 11.9005C17.8382 12.1428 17.7853 12.3811 17.7217 12.6155C17.7073 12.6684 17.6934 12.7208 17.6776 12.7731C17.6069 13.013 17.5257 13.248 17.434 13.4782C17.414 13.5291 17.3937 13.5798 17.3719 13.6299C17.1244 14.2165 16.8083 14.7716 16.4302 15.2834L16.4235 15.278L16.041 14.9726L15.9196 14.8764C16.2598 14.4135 16.5447 13.9122 16.7684 13.3828L16.7594 13.3791L15.9035 13.0287C15.8414 13.1759 15.7738 13.3204 15.7008 13.4623L15.119 13.1612C15.1836 13.0357 15.243 12.9088 15.2974 12.7805C15.3191 12.7307 15.34 12.6803 15.3601 12.6294C15.4203 12.4765 15.4736 12.3218 15.5199 12.1652C15.5357 12.1128 15.5504 12.0605 15.5645 12.0075C15.6057 11.8521 15.6398 11.6962 15.6681 11.5377C15.6779 11.4839 15.6864 11.4298 15.6946 11.3755C15.7768 10.8111 15.7774 10.2377 15.6963 9.67303C15.6887 9.61897 15.6799 9.56491 15.6706 9.51142C15.6426 9.35254 15.6082 9.19573 15.5676 9.04101C15.5537 8.98808 15.5394 8.93572 15.5238 8.88336C15.4772 8.72636 15.4239 8.57116 15.3641 8.41776C15.3452 8.367 15.3247 8.31652 15.3025 8.26633C15.2579 8.16048 15.2102 8.05575 15.1586 7.95216C14.9106 7.45298 14.5924 6.99218 14.2135 6.58395C14.2095 6.57914 14.205 6.57461 14.2005 6.5698L14.3337 6.45659L14.6976 6.14525C14.8464 6.30511 14.9866 6.47281 15.1176 6.64764C15.3574 6.96527 15.567 7.3047 15.7437 7.66148C15.8021 7.77941 15.8568 7.89876 15.908 8.01952L16.7591 7.67082L16.7721 7.66544C16.5279 7.08533 16.2105 6.53904 15.8276 6.03996C15.6958 5.86617 15.5556 5.6989 15.407 5.53813C15.3714 5.49964 15.3358 5.46114 15.2991 5.42322C15.1486 5.26528 14.9912 5.11433 14.8269 4.97036C14.5713 4.74636 14.3006 4.54038 14.0167 4.3539V3.58036C14.464 3.84203 14.885 4.14648 15.2737 4.48947C15.4377 4.63326 15.5958 4.78468 15.7471 4.94233C15.8005 4.99724 15.8532 5.05357 15.9046 5.10989C16.0518 5.27141 16.1921 5.43859 16.3255 5.61144C16.7534 6.16415 17.1073 6.77066 17.3781 7.41552C17.3993 7.4659 17.4196 7.51628 17.4397 7.56751C17.5314 7.79762 17.6121 8.03368 17.6816 8.27369C17.6971 8.32605 17.7118 8.37898 17.7259 8.43191C17.7891 8.66627 17.8415 8.90468 17.8831 9.14715C17.8925 9.20092 17.9015 9.25498 17.9097 9.30904C17.9698 9.7086 18 10.1121 18 10.5162L17.9992 10.5176ZM17.0831 8.61277L16.1968 8.86213C16.2442 9.04082 16.2837 9.22149 16.3153 9.40415L17.2249 9.25527L17.237 9.25329C17.1994 9.03535 17.1523 8.8208 17.0959 8.60966L17.0831 8.61277ZM15.9695 8.16868C16.039 8.34473 16.1001 8.52333 16.1527 8.70448L17.0388 8.45484L17.0515 8.45116C16.9887 8.23492 16.9162 8.02283 16.8342 7.81489L16.8212 7.82026L15.9695 8.16868ZM17.0476 12.5951L17.0383 12.5926L16.1471 12.3404C16.0937 12.5215 16.0326 12.6997 15.9639 12.875L16.8203 13.2257L16.8294 13.2294C16.9116 13.0222 16.9843 12.8108 17.0476 12.5951ZM17.235 11.7936L17.2246 11.7921L16.3108 11.6421C16.2789 11.8238 16.2388 12.0047 16.1914 12.1833L17.0823 12.4344L17.0922 12.4372C17.1492 12.226 17.1968 12.0113 17.235 11.793V11.7936ZM17.3395 10.844H16.4014C16.3903 11.0568 16.369 11.2687 16.3374 11.4797L17.2511 11.6297L17.2613 11.6314C17.3014 11.3705 17.3275 11.1076 17.3395 10.844ZM17.3395 10.1893C17.3283 9.93028 17.3032 9.67206 17.2644 9.41575L17.2525 9.41773L16.341 9.56661C16.3713 9.77191 16.3917 9.97947 16.402 10.1893H17.3395ZM15.0248 15.8905C14.9849 15.9279 14.9451 15.9647 14.9042 16.0006L14.8082 16.0855C14.3315 16.4987 13.8039 16.8488 13.2382 17.1271L13.2314 17.1124C12.221 17.5829 11.1205 17.8273 10.0064 17.8288C8.89235 17.8302 7.79128 17.5887 6.77959 17.1209L6.77705 17.1263C6.21205 16.8481 5.68505 16.4984 5.20898 16.0855C5.17651 16.0572 5.1449 16.0289 5.113 16.0006C5.07216 15.9646 5.03198 15.9279 4.99246 15.8905C4.68388 15.6011 4.40057 15.2856 4.14562 14.9477L4.00871 15.038C4.02142 15.0553 4.0344 15.072 4.04767 15.0892C4.08888 15.1433 4.13094 15.1968 4.17413 15.2503C4.18796 15.2673 4.20236 15.2843 4.21591 15.301C4.21986 15.3063 4.22409 15.3111 4.22861 15.3162C4.24809 15.3406 4.2687 15.3649 4.2893 15.389C4.30483 15.4074 4.32035 15.4258 4.33729 15.4456C4.35423 15.4654 4.37314 15.4872 4.39149 15.5081C4.40984 15.5291 4.43129 15.5529 4.45161 15.5749L4.48323 15.6098C4.5044 15.6332 4.52614 15.6562 4.54759 15.6791C4.57582 15.7102 4.60659 15.7414 4.63679 15.7719C4.7147 15.8525 4.79477 15.931 4.87701 16.0074C4.90806 16.0374 4.9394 16.0666 4.97186 16.0952C4.97638 16.0994 4.98033 16.1034 4.98484 16.1071L4.99105 16.113L4.99698 16.1187C5.00178 16.1237 5.00686 16.1283 5.01194 16.1328L4.99642 16.1192L4.65175 16.4691C4.81792 16.62 4.99049 16.7634 5.16946 16.8993C5.23099 16.9468 5.29366 16.993 5.35689 17.038C5.71734 17.2962 6.09872 17.5237 6.49703 17.7181L6.50267 17.7207L6.49872 17.7294C7.57472 18.2274 8.7441 18.49 9.92914 18.4997C11.1142 18.5095 12.2877 18.2662 13.3717 17.786L13.3737 17.7897C13.4231 17.7668 13.4728 17.743 13.5213 17.719C13.9191 17.5237 14.2998 17.2953 14.6595 17.0363C14.723 16.9913 14.7854 16.9451 14.8472 16.8976C15.0256 16.7615 15.1982 16.6181 15.3649 16.4674L15.02 16.1175C15.0146 16.1223 15.0098 16.1269 15.0044 16.1311C15.0098 16.1266 15.0146 16.1221 15.0197 16.117C15.022 16.1154 15.0241 16.1137 15.0262 16.1119L15.0324 16.1059L15.0454 16.094C15.0775 16.0655 15.1092 16.0363 15.1402 16.0063C15.2223 15.9308 15.3023 15.8523 15.3804 15.7708C15.4106 15.7402 15.44 15.7091 15.4693 15.678C15.4911 15.655 15.5128 15.6321 15.534 15.6086C15.5447 15.597 15.5552 15.5851 15.5653 15.5738C15.5859 15.5517 15.606 15.5297 15.6254 15.507L15.6799 15.4445C15.6966 15.4258 15.7121 15.4074 15.7276 15.3879C15.7485 15.3638 15.7688 15.3395 15.7886 15.3151C15.7931 15.31 15.7971 15.3052 15.8013 15.2998C15.8154 15.2831 15.8295 15.2661 15.8428 15.2492C15.8863 15.1957 15.9275 15.1422 15.9695 15.0881C15.9825 15.0708 15.9958 15.0541 16.0082 15.0369L15.8716 14.9477C15.6165 15.2855 15.3332 15.6009 15.0248 15.8905ZM12.2358 10.2903V12.5334H11.7918V13.5031H11.6255V7.35014L10.5912 8.38691V9.7803L10.2031 10.1695L9.96457 10.4086L9.85166 10.5204V13.5031H9.68229V12.0251L9.1533 11.6611V13.5031H8.98393V10.4842L8.16192 11.1995V13.5031H7.89601V12.5951H7.7385V12.0118H7.26709V10.2782L6.62631 10.7517V12.3514L6.43916 12.5212C6.80708 13.1881 7.35402 13.7383 8.01795 14.1094C8.68188 14.4804 9.43623 14.6575 10.1954 14.6205C10.9546 14.5835 11.6883 14.334 12.3132 13.9001C12.9382 13.4663 13.4293 12.8656 13.7311 12.166L13.2884 11.9022V10.836L12.2358 10.2903ZM4.59417 14.7714L5.02154 15.2676L6.05921 14.3689L5.63183 13.873L4.59417 14.7714ZM13.5419 7.30231L13.6548 7.18258C12.8097 6.25102 11.6423 5.67737 10.3902 5.57836C9.1381 5.47935 7.89544 5.86242 6.91509 6.64962C6.74462 6.78624 6.58328 6.93393 6.4321 7.09172L6.54501 7.21173C7.38295 6.33017 8.52441 5.80185 9.73709 5.73428C10.9498 5.66672 12.1426 6.06498 13.0728 6.84803C13.2392 6.98867 13.3959 7.14044 13.5419 7.30231Z" fill="url(#paint0_linear_2177_19327)"/>
<defs>
<linearGradient id="paint0_linear_2177_19327" x1="4.72063" y1="14.5772" x2="17.4363" y2="4.85377" gradientUnits="userSpaceOnUse">
<stop stop-color="#F9DD00"/>
<stop offset="1" stop-color="#CDE9DF"/>
</linearGradient>
</defs>
</svg>
