<svg width="19" height="18" viewBox="0 0 19 18" fill="none" xmlns="http://www.w3.org/2000/svg">
<path fill-rule="evenodd" clip-rule="evenodd" d="M5.006 13.2829C5.14087 13.4176 5.33568 13.5 5.53798 13.5L5.52974 13.491C5.72455 13.491 5.91936 13.4087 6.06172 13.2739L6.06247 13.2746L12.2825 7.05897V12.0025C12.2825 12.4143 12.6122 12.7512 13.0317 12.7512C13.4438 12.7512 13.781 12.4143 13.781 12.0025V5.26376C13.781 5.09315 13.7252 4.93742 13.6312 4.8127C13.6086 4.78168 13.5832 4.752 13.5552 4.72397C13.3666 4.53605 13.1099 4.46633 12.8727 4.51501H6.28833C5.86874 4.51501 5.53906 4.84446 5.53906 5.26376C5.53906 5.67557 5.86874 6.0125 6.28833 6.0125H11.2025L4.99851 12.2122V12.2196C4.70629 12.5117 4.70629 12.9909 5.006 13.2829Z" fill="#0B0B0B"/>
</svg>
