<svg width="410" height="150" viewBox="0 0 410 150" fill="none" xmlns="http://www.w3.org/2000/svg">
<path d="M339.256 74.6387C339.256 70.7324 340.053 67.0052 341.648 63.457C343.243 59.8763 345.538 56.7188 348.533 53.9844C351.528 51.25 355.19 49.069 359.52 47.4414C363.882 45.8138 368.829 45 374.363 45C379.865 45 384.812 45.8301 389.207 47.4902C393.634 49.1178 397.378 51.3639 400.438 54.2285C403.53 57.0931 405.89 60.4622 407.518 64.3359C409.178 68.2096 410.008 72.36 410.008 76.7871C410.008 77.3405 409.992 77.9427 409.959 78.5938C409.959 79.2122 409.926 79.7819 409.861 80.3027H355.369C355.988 82.028 356.98 83.6068 358.348 85.0391C359.747 86.4714 361.489 87.7083 363.572 88.75C365.656 89.7917 368.064 90.6055 370.799 91.1914C373.533 91.7448 376.561 92.0215 379.881 92.0215C383.201 92.0215 386.505 91.6797 389.793 90.9961C393.081 90.2799 396.222 89.3848 399.217 88.3105L404.1 99.3457C402.212 100.225 400.291 101.006 398.338 101.689C396.417 102.34 394.399 102.894 392.283 103.35C390.2 103.773 388.003 104.098 385.691 104.326C383.413 104.554 381.004 104.668 378.465 104.668C371.987 104.668 366.307 103.887 361.424 102.324C356.541 100.762 352.456 98.6296 349.168 95.9277C345.88 93.2259 343.406 90.0521 341.746 86.4062C340.086 82.7604 339.256 78.8379 339.256 74.6387ZM394.676 69.0234C394.155 67.4284 393.341 65.9473 392.234 64.5801C391.16 63.1803 389.809 61.9759 388.182 60.9668C386.554 59.9251 384.666 59.1113 382.518 58.5254C380.369 57.9395 378.009 57.6465 375.438 57.6465C372.703 57.6465 370.213 57.9557 367.967 58.5742C365.721 59.1927 363.751 60.0228 362.059 61.0645C360.366 62.1061 358.95 63.3105 357.811 64.6777C356.704 66.0449 355.89 67.4935 355.369 69.0234H394.676Z" fill="#222133"/>
<path d="M281.396 127.178H266.943V46.0254H281.396V51.4453C282.666 50.5664 284.163 49.7363 285.889 48.9551C287.614 48.1738 289.469 47.4902 291.455 46.9043C293.441 46.3184 295.492 45.8626 297.607 45.5371C299.723 45.179 301.839 45 303.955 45C308.838 45 313.314 45.7161 317.383 47.1484C321.484 48.5807 325 50.599 327.93 53.2031C330.859 55.8073 333.138 58.9323 334.766 62.5781C336.426 66.1914 337.256 70.1953 337.256 74.5898C337.256 79.1797 336.393 83.3301 334.668 87.041C332.943 90.7194 330.55 93.877 327.49 96.5137C324.463 99.1178 320.85 101.136 316.65 102.568C312.484 103.968 307.959 104.668 303.076 104.668C300.993 104.668 298.926 104.538 296.875 104.277C294.857 104.017 292.904 103.659 291.016 103.203C289.16 102.747 287.402 102.21 285.742 101.592C284.115 100.941 282.666 100.241 281.396 99.4922V127.178ZM281.396 85.5273C282.861 86.6992 284.408 87.6921 286.035 88.5059C287.663 89.3197 289.323 89.987 291.016 90.5078C292.708 91.0286 294.417 91.4193 296.143 91.6797C297.868 91.9076 299.544 92.0215 301.172 92.0215C304.492 92.0215 307.438 91.582 310.01 90.7031C312.614 89.7917 314.795 88.5547 316.553 86.9922C318.343 85.4297 319.71 83.5905 320.654 81.4746C321.598 79.3587 322.07 77.0638 322.07 74.5898C322.07 72.2786 321.598 70.0977 320.654 68.0469C319.743 65.9961 318.408 64.2057 316.65 62.6758C314.925 61.1133 312.826 59.8926 310.352 59.0137C307.91 58.1022 305.16 57.6465 302.1 57.6465C300.146 57.6465 298.193 57.8418 296.24 58.2324C294.287 58.5905 292.399 59.1113 290.576 59.7949C288.786 60.4785 287.093 61.3086 285.498 62.2852C283.936 63.2617 282.568 64.3522 281.396 65.5566V85.5273Z" fill="#222133"/>
<path d="M256.52 38.332C255.087 38.332 253.785 38.1367 252.613 37.7461C251.474 37.3229 250.497 36.7695 249.684 36.0859C248.87 35.3698 248.235 34.556 247.779 33.6445C247.356 32.7005 247.145 31.7077 247.145 30.666C247.145 29.5918 247.356 28.599 247.779 27.6875C248.235 26.7435 248.87 25.9297 249.684 25.2461C250.497 24.5625 251.474 24.0254 252.613 23.6348C253.785 23.2116 255.087 23 256.52 23C257.984 23 259.286 23.2116 260.426 23.6348C261.598 24.0254 262.59 24.5625 263.404 25.2461C264.218 25.9297 264.837 26.7435 265.26 27.6875C265.715 28.599 265.943 29.5918 265.943 30.666C265.943 31.7077 265.715 32.7005 265.26 33.6445C264.837 34.556 264.218 35.3698 263.404 36.0859C262.59 36.7695 261.598 37.3229 260.426 37.7461C259.286 38.1367 257.984 38.332 256.52 38.332ZM249.293 46.1934H263.746V103.811H249.293V46.1934Z" fill="#222133"/>
<path d="M173 28H211.818C217.678 28 222.756 28.6185 227.053 29.8555C231.35 31.0599 234.914 32.8177 237.746 35.1289C240.578 37.4401 242.678 40.2559 244.045 43.5762C245.445 46.8965 246.145 50.6562 246.145 54.8555C246.145 57.6875 245.803 60.3893 245.119 62.9609C244.436 65.5 243.378 67.8438 241.945 69.9922C240.546 72.1406 238.771 74.0612 236.623 75.7539C234.475 77.4141 231.952 78.7975 229.055 79.9043L245.656 104.318H226.711L212.355 82.6387H211.916L188.479 82.5898V104.318H173V28ZM212.209 69.2109C215.139 69.2109 217.694 68.8691 219.875 68.1855C222.089 67.502 223.928 66.5417 225.393 65.3047C226.89 64.0677 227.997 62.5703 228.713 60.8125C229.462 59.0221 229.836 57.0365 229.836 54.8555C229.836 50.5911 228.371 47.3034 225.441 44.9922C222.512 42.6484 218.101 41.4766 212.209 41.4766H188.479V69.2109H212.209Z" fill="#222133"/>
<path d="M60.6008 1.4026C42.2549 5.46143 27.3184 14.5532 16.4407 28.3532C-7.42516 58.5509 -5.07104 101.006 21.9608 128.363C30.1596 136.562 41.0372 143.543 45.8267 143.543C49.0737 143.543 51.6714 140.539 51.6714 136.886C51.6714 133.558 50.5349 132.422 41.1184 126.496C27.4808 117.972 17.0902 101.818 14.4113 85.0956C10.109 58.7132 23.5843 32.3309 47.2878 20.3167C63.6043 12.1179 82.9243 11.4685 99.8902 18.612C121.808 27.8661 136.907 51.1638 136.907 75.5168C136.826 96.9474 126.597 115.293 107.602 127.713C99.322 133.233 98.0232 135.019 99.4843 138.916C100.458 141.432 103.381 143.543 105.978 143.543C110.687 143.543 125.38 132.827 132.442 124.304C164.831 85.258 152.168 27.785 106.547 6.67908C92.909 0.428482 74.5631 -1.68211 60.6008 1.4026Z" fill="#222133"/>
<path d="M61.8996 22.265C42.8231 26.892 27.0749 42.7215 22.0419 62.3662C20.0937 69.7533 20.7431 85.0144 23.1784 92.4015C25.776 100.032 30.9713 108.312 36.7349 114.076C41.1996 118.622 42.1737 119.19 44.9337 119.19C48.9925 119.19 51.6714 116.592 51.6714 112.777C51.6714 110.585 50.6972 109.043 46.4761 104.578C33.4878 90.778 30.6466 73.0003 38.7643 56.6838C46.3137 41.6662 64.822 31.7626 80.002 34.5226C95.9126 37.5262 112.473 54.4921 115.963 71.5391C117.993 81.118 113.447 94.5121 105.086 103.442C102.488 106.12 100.053 109.367 99.5655 110.585C97.8608 115.05 102.731 120.002 107.683 118.784C111.336 117.891 120.266 107.744 123.837 100.357C128.464 90.9403 129.926 84.7709 129.844 74.5427C129.682 59.6062 124.649 47.6732 113.771 36.7144C108.657 31.5191 105.816 29.4897 100.377 26.8109C96.562 24.9438 91.2855 22.8332 88.6067 22.1838C82.5184 20.6414 68.3937 20.7226 61.8996 22.265Z" fill="#222133"/>
<path d="M65.0655 42.6403C56.2984 45.8062 48.0996 52.5438 45.5019 58.7133C43.6349 63.2591 46.6384 68.0486 51.4278 68.0486C54.1878 68.0486 54.5125 67.805 60.6008 61.1485C64.4972 56.8462 68.7996 55.0603 75.2125 55.0603C81.6255 55.0603 85.9278 56.8462 89.8243 61.1485C95.8314 67.7238 96.2373 68.0486 98.7537 68.0486C102.325 68.0486 104.111 66.8309 105.167 63.9085C105.897 61.7168 105.816 60.7427 104.436 57.8203C102.082 53.0309 95.669 47.2674 89.1749 44.2638C84.5478 42.1532 82.5996 41.6662 76.4302 41.5038C70.9914 41.2603 68.069 41.585 65.0655 42.6403Z" fill="#222133"/>
<path d="M69.8549 63.0968C61.0066 67.1556 58.9772 77.9521 65.7961 84.7709C71.4784 90.4533 79.9208 90.2098 85.2784 84.2027C90.4737 78.5203 90.2302 71.2956 84.629 65.938C79.8396 61.3109 75.5372 60.4991 69.8549 63.0968Z" fill="#222133"/>
<path d="M43.9596 77.3839C41.5243 79.8192 41.4431 82.0921 43.6349 87.9368C45.6643 93.4568 50.3726 99.4639 55.2432 103.036L58.9773 105.633V125.44V145.329L61.3314 147.683C63.929 150.199 65.7961 150.605 69.0432 149.144C71.8843 147.845 72.2091 146.627 72.7773 137.86L73.1832 130.149H75.6185H78.0538L78.4596 138.51C78.8655 146.14 79.0279 147.114 80.8138 148.494C83.6549 150.767 87.0644 150.443 89.9055 147.683L92.2597 145.329V124.953C92.2597 113.102 92.5844 104.578 92.9902 104.578C95.182 104.578 102.975 95.8921 105.654 90.6156C109.226 83.4721 109.388 79.4133 106.384 77.0592C101.757 73.4062 96.8055 75.598 94.695 82.1733C93.3149 86.3945 87.7949 92.2392 83.4926 94.1062C72.9396 98.6521 58.9773 92.4827 55.8114 81.8486C53.9443 75.4356 48.0184 73.2439 43.9596 77.3839Z" fill="#222133"/>
</svg>
