<svg width="93" height="34" viewBox="0 0 93 34" fill="none" xmlns="http://www.w3.org/2000/svg">
<rect x="0.656612" y="0.903683" width="91.1926" height="32.1926" rx="2.58993" stroke="#0B0B0B" stroke-width="1.31322"/>
<path d="M14.8582 23.5V10.94L12.7182 18.8H11.0582L8.91816 10.94V23.5H7.31816V9.5H10.1382L11.9582 16.66L13.7582 9.5H16.5182V23.5H14.8582ZM25.9358 23.5L25.1758 19.96H21.2758L20.4958 23.5H18.7158L22.0958 9.5H24.3958L27.7158 23.5H25.9358ZM23.2158 10.82L21.5958 18.46H24.8558L23.2158 10.82ZM32.9252 23.5C31.7652 23.5 30.8719 23.22 30.2452 22.66C29.6319 22.0867 29.3252 21.2333 29.3252 20.1V12.9C29.3252 11.7667 29.6319 10.92 30.2452 10.36C30.8719 9.78667 31.7652 9.5 32.9252 9.5H35.3652V11.02H32.7252C32.2319 11.02 31.8319 11.1667 31.5252 11.46C31.2185 11.7533 31.0652 12.1067 31.0652 12.52V20.48C31.0652 20.8933 31.2185 21.2467 31.5252 21.54C31.8319 21.8333 32.2319 21.98 32.7252 21.98H35.3652V23.5H32.9252ZM37.065 23.5V22.04H38.465V10.96H37.065V9.5H41.605V10.96H40.205V22.04H41.605V23.5H37.065ZM52.928 17.7H51.148V23.5H49.408V9.5H52.988C54.1213 9.5 54.9747 9.75333 55.548 10.26C56.1347 10.7533 56.428 11.54 56.428 12.62V14.54C56.428 16.0467 55.828 16.9867 54.628 17.36L57.408 23.5H55.508L52.928 17.7ZM54.688 12.44C54.688 11.9333 54.568 11.5667 54.328 11.34C54.1013 11.1133 53.7347 11 53.228 11H51.148V16.2H53.228C53.7347 16.2 54.1013 16.0867 54.328 15.86C54.568 15.62 54.688 15.2467 54.688 14.74V12.44ZM66.8186 14.9C66.8186 15.98 66.532 16.78 65.9586 17.3C65.3853 17.8067 64.5386 18.06 63.4186 18.06H61.5386V23.5H59.7986V9.5H63.3786C64.512 9.5 65.3653 9.75333 65.9386 10.26C66.5253 10.7533 66.8186 11.54 66.8186 12.62V14.9ZM65.0786 12.44C65.0786 11.9333 64.9586 11.5667 64.7186 11.34C64.492 11.1133 64.1253 11 63.6186 11H61.5386V16.56H63.6186C64.1253 16.56 64.492 16.4467 64.7186 16.22C64.9586 15.98 65.0786 15.6067 65.0786 15.1V12.44ZM73.0229 23.5C71.8629 23.5 70.9695 23.22 70.3429 22.66C69.7295 22.0867 69.4229 21.2333 69.4229 20.1V12.9C69.4229 11.7667 69.7295 10.92 70.3429 10.36C70.9695 9.78667 71.8629 9.5 73.0229 9.5H75.7229V11.02H72.8229C72.3295 11.02 71.9295 11.1667 71.6229 11.46C71.3162 11.7533 71.1629 12.1067 71.1629 12.52V20.48C71.1629 20.8933 71.3162 21.2467 71.6229 21.54C71.9295 21.8333 72.3295 21.98 72.8229 21.98H74.6629V17.64H72.9829V16.14H76.3229V23.5H73.0229ZM81.1675 10.96V15.74H85.4875V17.2H81.1675V23.5H79.4275V9.5H85.9875V10.96H81.1675Z" fill="#0B0B0B"/>
</svg>
