<?xml version="1.0" encoding="UTF-8" standalone="no"?>
<!DOCTYPE svg PUBLIC "-//W3C//DTD SVG 1.1//EN"
 "http://www.w3.org/Graphics/SVG/1.1/DTD/svg11.dtd">
<!-- Generated by graphviz version 5.0.0 (20220707.1540)
 -->
<!-- Title: UmlClassDiagram Pages: 1 -->
<svg width="1896pt" height="1557pt"
 viewBox="0.00 0.00 1896.34 1557.20" xmlns="http://www.w3.org/2000/svg" xmlns:xlink="http://www.w3.org/1999/xlink">
<g id="graph0" class="graph" transform="scale(1 1) rotate(0) translate(4 1553.2)">
<title>UmlClassDiagram</title>
<polygon fill="white" stroke="transparent" points="-4,4 -4,-1553.2 1892.34,-1553.2 1892.34,4 -4,4"/>
<!-- 0 -->
<g id="node1" class="node">
<title>0</title>
<polygon fill="#f2f2f2" stroke="black" points="212.83,-922.7 212.83,-1056.3 425.19,-1056.3 425.19,-922.7 212.83,-922.7"/>
<text text-anchor="middle" x="319.01" y="-1039.7" font-family="Times,serif" font-size="14.00">&lt;&lt;Abstract&gt;&gt;</text>
<text text-anchor="middle" x="319.01" y="-1022.9" font-family="Times,serif" font-size="14.00">Context</text>
<text text-anchor="middle" x="319.01" y="-1006.1" font-family="Times,serif" font-size="14.00">build/flatten.sol</text>
<polyline fill="none" stroke="black" points="212.83,-997.9 425.19,-997.9 "/>
<text text-anchor="start" x="220.83" y="-981.3" font-family="Times,serif" font-size="14.00">Internal:</text>
<text text-anchor="start" x="220.83" y="-964.5" font-family="Times,serif" font-size="14.00"> &#160;&#160;&#160;_msgSender(): address</text>
<text text-anchor="start" x="220.83" y="-947.7" font-family="Times,serif" font-size="14.00"> &#160;&#160;&#160;_msgData(): bytes</text>
<text text-anchor="start" x="220.83" y="-930.9" font-family="Times,serif" font-size="14.00"> &#160;&#160;&#160;_contextSuffixLength(): uint256</text>
</g>
<!-- 1 -->
<g id="node2" class="node">
<title>1</title>
<polygon fill="#f2f2f2" stroke="black" points="232.54,-542.5 232.54,-818.5 717.47,-818.5 717.47,-542.5 232.54,-542.5"/>
<text text-anchor="middle" x="475.01" y="-801.9" font-family="Times,serif" font-size="14.00">&lt;&lt;Abstract&gt;&gt;</text>
<text text-anchor="middle" x="475.01" y="-785.1" font-family="Times,serif" font-size="14.00">Ownable</text>
<text text-anchor="middle" x="475.01" y="-768.3" font-family="Times,serif" font-size="14.00">build/flatten.sol</text>
<polyline fill="none" stroke="black" points="232.54,-760.1 717.47,-760.1 "/>
<text text-anchor="start" x="240.54" y="-743.5" font-family="Times,serif" font-size="14.00">Private:</text>
<text text-anchor="start" x="240.54" y="-726.7" font-family="Times,serif" font-size="14.00"> &#160;&#160;_owner: address</text>
<polyline fill="none" stroke="black" points="232.54,-718.5 717.47,-718.5 "/>
<text text-anchor="start" x="240.54" y="-701.9" font-family="Times,serif" font-size="14.00">Internal:</text>
<text text-anchor="start" x="240.54" y="-685.1" font-family="Times,serif" font-size="14.00"> &#160;&#160;&#160;_checkOwner()</text>
<text text-anchor="start" x="240.54" y="-668.3" font-family="Times,serif" font-size="14.00"> &#160;&#160;&#160;_transferOwnership(newOwner: address)</text>
<text text-anchor="start" x="240.54" y="-651.5" font-family="Times,serif" font-size="14.00">Public:</text>
<text text-anchor="start" x="240.54" y="-634.7" font-family="Times,serif" font-size="14.00"> &#160;&#160;&#160;&lt;&lt;event&gt;&gt; OwnershipTransferred(previousOwner: address, newOwner: address)</text>
<text text-anchor="start" x="240.54" y="-617.9" font-family="Times,serif" font-size="14.00"> &#160;&#160;&#160;&lt;&lt;modifier&gt;&gt; onlyOwner()</text>
<text text-anchor="start" x="240.54" y="-601.1" font-family="Times,serif" font-size="14.00"> &#160;&#160;&#160;constructor(initialOwner: address)</text>
<text text-anchor="start" x="240.54" y="-584.3" font-family="Times,serif" font-size="14.00"> &#160;&#160;&#160;owner(): address</text>
<text text-anchor="start" x="240.54" y="-567.5" font-family="Times,serif" font-size="14.00"> &#160;&#160;&#160;renounceOwnership() &lt;&lt;onlyOwner&gt;&gt;</text>
<text text-anchor="start" x="240.54" y="-550.7" font-family="Times,serif" font-size="14.00"> &#160;&#160;&#160;transferOwnership(newOwner: address) &lt;&lt;onlyOwner&gt;&gt;</text>
</g>
<!-- 1&#45;&gt;0 -->
<g id="edge1" class="edge">
<title>1&#45;&gt;0</title>
<path fill="none" stroke="black" d="M405.22,-818.84C392.04,-844.77 378.55,-871.33 366.27,-895.5"/>
<polygon fill="none" stroke="black" points="356.72,-891.1 352.49,-922.6 375.45,-900.61 356.72,-891.1"/>
</g>
<!-- 2 -->
<g id="node3" class="node">
<title>2</title>
<polygon fill="#f2f2f2" stroke="black" points="481.03,-855.5 481.03,-1123.5 1084.99,-1123.5 1084.99,-855.5 481.03,-855.5"/>
<text text-anchor="middle" x="783.01" y="-1106.9" font-family="Times,serif" font-size="14.00">&lt;&lt;Interface&gt;&gt;</text>
<text text-anchor="middle" x="783.01" y="-1090.1" font-family="Times,serif" font-size="14.00">IRecipientRegistry</text>
<text text-anchor="middle" x="783.01" y="-1073.3" font-family="Times,serif" font-size="14.00">build/flatten.sol</text>
<polyline fill="none" stroke="black" points="481.03,-1065.1 1084.99,-1065.1 "/>
<text text-anchor="start" x="489.03" y="-1048.5" font-family="Times,serif" font-size="14.00">External:</text>
<text text-anchor="start" x="489.03" y="-1031.7" font-family="Times,serif" font-size="14.00"> &#160;&#160;&#160;&#160;getRegistryMetadataUrl(): bytes32</text>
<text text-anchor="start" x="489.03" y="-1014.9" font-family="Times,serif" font-size="14.00"> &#160;&#160;&#160;&#160;addRecipient(recipient: Recipient): uint256</text>
<text text-anchor="start" x="489.03" y="-998.1" font-family="Times,serif" font-size="14.00"> &#160;&#160;&#160;&#160;removeRecipient(index: uint256)</text>
<text text-anchor="start" x="489.03" y="-981.3" font-family="Times,serif" font-size="14.00"> &#160;&#160;&#160;&#160;changeRecipient(index: uint256, recipient: Recipient)</text>
<text text-anchor="start" x="489.03" y="-964.5" font-family="Times,serif" font-size="14.00"> &#160;&#160;&#160;&#160;getRecipient(index: uint256): Recipient</text>
<text text-anchor="start" x="489.03" y="-947.7" font-family="Times,serif" font-size="14.00"> &#160;&#160;&#160;&#160;maxRecipients(): uint256</text>
<text text-anchor="start" x="489.03" y="-930.9" font-family="Times,serif" font-size="14.00"> &#160;&#160;&#160;&#160;recipientCount(): uint256</text>
<text text-anchor="start" x="489.03" y="-914.1" font-family="Times,serif" font-size="14.00">Public:</text>
<text text-anchor="start" x="489.03" y="-897.3" font-family="Times,serif" font-size="14.00"> &#160;&#160;&#160;&lt;&lt;event&gt;&gt; RecipientAdded(index: uint256, id: bytes32, metadataUrl: bytes32, payout: address)</text>
<text text-anchor="start" x="489.03" y="-880.5" font-family="Times,serif" font-size="14.00"> &#160;&#160;&#160;&lt;&lt;event&gt;&gt; RecipientRemoved(index: uint256, id: bytes32, payout: address)</text>
<text text-anchor="start" x="489.03" y="-863.7" font-family="Times,serif" font-size="14.00"> &#160;&#160;&#160;&lt;&lt;event&gt;&gt; RecipientChanged(index: uint256, id: bytes32, metadataUrl: bytes32, newPayout: address)</text>
</g>
<!-- 3 -->
<g id="node4" class="node">
<title>3</title>
<polygon fill="#f2f2f2" stroke="black" points="714.94,-1219.3 714.94,-1336.1 851.07,-1336.1 851.07,-1219.3 714.94,-1219.3"/>
<text text-anchor="middle" x="783.01" y="-1319.5" font-family="Times,serif" font-size="14.00">&lt;&lt;Struct&gt;&gt;</text>
<text text-anchor="middle" x="783.01" y="-1302.7" font-family="Times,serif" font-size="14.00">Recipient</text>
<text text-anchor="middle" x="783.01" y="-1285.9" font-family="Times,serif" font-size="14.00">build/flatten.sol</text>
<polyline fill="none" stroke="black" points="714.94,-1277.7 851.07,-1277.7 "/>
<text text-anchor="start" x="722.94" y="-1261.1" font-family="Times,serif" font-size="14.00">id: bytes32</text>
<text text-anchor="start" x="722.94" y="-1244.3" font-family="Times,serif" font-size="14.00">metadataUrl: bytes32</text>
<text text-anchor="start" x="722.94" y="-1227.5" font-family="Times,serif" font-size="14.00">recipient: address</text>
</g>
<!-- 2&#45;&gt;3 -->
<g id="edge3" class="edge">
<title>2&#45;&gt;3</title>
<path fill="none" stroke="black" stroke-dasharray="5,2" d="M776.27,-1123.55C776.19,-1153.05 776.48,-1183.14 777.16,-1208.74"/>
<polygon fill="black" stroke="black" points="773.67,-1209.16 777.47,-1219.05 780.67,-1208.95 773.67,-1209.16"/>
</g>
<!-- 3&#45;&gt;2 -->
<g id="edge2" class="edge">
<title>3&#45;&gt;2</title>
<path fill="none" stroke="black" d="M788.55,-1219.05C789.33,-1194.78 789.74,-1165.33 789.76,-1135.76"/>
<polygon fill="black" stroke="black" points="789.76,-1135.55 785.75,-1129.55 789.74,-1123.55 793.75,-1129.54 789.76,-1135.55"/>
</g>
<!-- 4 -->
<g id="node5" class="node">
<title>4</title>
<polygon fill="#f2f2f2" stroke="black" points="949.91,-1160.5 949.91,-1394.9 1822.11,-1394.9 1822.11,-1160.5 949.91,-1160.5"/>
<text text-anchor="middle" x="1386.01" y="-1378.3" font-family="Times,serif" font-size="14.00">&lt;&lt;Interface&gt;&gt;</text>
<text text-anchor="middle" x="1386.01" y="-1361.5" font-family="Times,serif" font-size="14.00">IRegistryManager</text>
<text text-anchor="middle" x="1386.01" y="-1344.7" font-family="Times,serif" font-size="14.00">build/flatten.sol</text>
<polyline fill="none" stroke="black" points="949.91,-1336.5 1822.11,-1336.5 "/>
<text text-anchor="start" x="957.91" y="-1319.9" font-family="Times,serif" font-size="14.00">External:</text>
<text text-anchor="start" x="957.91" y="-1303.1" font-family="Times,serif" font-size="14.00"> &#160;&#160;&#160;&#160;process(request: Request)</text>
<text text-anchor="start" x="957.91" y="-1286.3" font-family="Times,serif" font-size="14.00"> &#160;&#160;&#160;&#160;approve(index: uint256)</text>
<text text-anchor="start" x="957.91" y="-1269.5" font-family="Times,serif" font-size="14.00"> &#160;&#160;&#160;&#160;reject(index: uint256)</text>
<text text-anchor="start" x="957.91" y="-1252.7" font-family="Times,serif" font-size="14.00"> &#160;&#160;&#160;&#160;getRequest(index: uint256): (request: Request)</text>
<text text-anchor="start" x="957.91" y="-1235.9" font-family="Times,serif" font-size="14.00"> &#160;&#160;&#160;&#160;requestCount(): uint256</text>
<text text-anchor="start" x="957.91" y="-1219.1" font-family="Times,serif" font-size="14.00">Public:</text>
<text text-anchor="start" x="957.91" y="-1202.3" font-family="Times,serif" font-size="14.00"> &#160;&#160;&#160;&lt;&lt;event&gt;&gt; RequestSent(registry: address, requestType: RequestType, recipient: bytes32, index: uint256, payout: address, metadataUrl: bytes32)</text>
<text text-anchor="start" x="957.91" y="-1185.5" font-family="Times,serif" font-size="14.00"> &#160;&#160;&#160;&lt;&lt;event&gt;&gt; RequestApproved(registry: address, requestType: RequestType, recipient: bytes32, index: uint256, payout: address, metadataUrl: bytes32)</text>
<text text-anchor="start" x="957.91" y="-1168.7" font-family="Times,serif" font-size="14.00"> &#160;&#160;&#160;&lt;&lt;event&gt;&gt; RequestRejected(registry: address, requestType: RequestType, recipient: bytes32, index: uint256, payout: address, metadataUrl: bytes32)</text>
</g>
<!-- 5 -->
<g id="node6" class="node">
<title>5</title>
<polygon fill="#f2f2f2" stroke="black" points="1333.87,-1431.9 1333.87,-1548.7 1438.14,-1548.7 1438.14,-1431.9 1333.87,-1431.9"/>
<text text-anchor="middle" x="1386.01" y="-1532.1" font-family="Times,serif" font-size="14.00">&lt;&lt;Enum&gt;&gt;</text>
<text text-anchor="middle" x="1386.01" y="-1515.3" font-family="Times,serif" font-size="14.00">RequestType</text>
<text text-anchor="middle" x="1386.01" y="-1498.5" font-family="Times,serif" font-size="14.00">build/flatten.sol</text>
<polyline fill="none" stroke="black" points="1333.87,-1490.3 1438.14,-1490.3 "/>
<text text-anchor="start" x="1341.87" y="-1473.7" font-family="Times,serif" font-size="14.00">Add: 0</text>
<text text-anchor="start" x="1341.87" y="-1456.9" font-family="Times,serif" font-size="14.00">Change: 1</text>
<text text-anchor="start" x="1341.87" y="-1440.1" font-family="Times,serif" font-size="14.00">Remove: 2</text>
</g>
<!-- 4&#45;&gt;5 -->
<g id="edge7" class="edge">
<title>4&#45;&gt;5</title>
<path fill="none" stroke="black" stroke-dasharray="5,2" d="M1379.29,-1395.09C1379.35,-1404.08 1379.47,-1412.97 1379.65,-1421.48"/>
<polygon fill="black" stroke="black" points="1376.16,-1421.75 1379.91,-1431.65 1383.16,-1421.57 1376.16,-1421.75"/>
</g>
<!-- 7 -->
<g id="node8" class="node">
<title>7</title>
<polygon fill="#f2f2f2" stroke="black" points="1361.38,-605.3 1361.38,-755.7 1596.64,-755.7 1596.64,-605.3 1361.38,-605.3"/>
<text text-anchor="middle" x="1479.01" y="-739.1" font-family="Times,serif" font-size="14.00">&lt;&lt;Struct&gt;&gt;</text>
<text text-anchor="middle" x="1479.01" y="-722.3" font-family="Times,serif" font-size="14.00">Request</text>
<text text-anchor="middle" x="1479.01" y="-705.5" font-family="Times,serif" font-size="14.00">build/flatten.sol</text>
<polyline fill="none" stroke="black" points="1361.38,-697.3 1596.64,-697.3 "/>
<text text-anchor="start" x="1369.38" y="-680.7" font-family="Times,serif" font-size="14.00">index: uint256</text>
<text text-anchor="start" x="1369.38" y="-663.9" font-family="Times,serif" font-size="14.00">registry: address</text>
<text text-anchor="start" x="1369.38" y="-647.1" font-family="Times,serif" font-size="14.00">requestType: RequestType</text>
<text text-anchor="start" x="1369.38" y="-630.3" font-family="Times,serif" font-size="14.00">status: Status</text>
<text text-anchor="start" x="1369.38" y="-613.5" font-family="Times,serif" font-size="14.00">recipient: IRecipientRegistry.Recipient</text>
</g>
<!-- 4&#45;&gt;7 -->
<g id="edge8" class="edge">
<title>4&#45;&gt;7</title>
<path fill="none" stroke="black" stroke-dasharray="5,2" d="M1409.65,-1160.45C1429.63,-1044.55 1456.81,-869.32 1470.68,-766.05"/>
<polygon fill="black" stroke="black" points="1474.17,-766.35 1472.02,-755.98 1467.23,-765.43 1474.17,-766.35"/>
</g>
<!-- 5&#45;&gt;4 -->
<g id="edge4" class="edge">
<title>5&#45;&gt;4</title>
<path fill="none" stroke="black" d="M1392.1,-1431.65C1392.33,-1423.85 1392.5,-1415.61 1392.61,-1407.15"/>
<polygon fill="black" stroke="black" points="1392.61,-1407.09 1388.67,-1401.05 1392.72,-1395.09 1396.67,-1401.13 1392.61,-1407.09"/>
</g>
<!-- 6 -->
<g id="node7" class="node">
<title>6</title>
<polygon fill="#f2f2f2" stroke="black" points="1200.87,-931.1 1200.87,-1047.9 1305.14,-1047.9 1305.14,-931.1 1200.87,-931.1"/>
<text text-anchor="middle" x="1253.01" y="-1031.3" font-family="Times,serif" font-size="14.00">&lt;&lt;Enum&gt;&gt;</text>
<text text-anchor="middle" x="1253.01" y="-1014.5" font-family="Times,serif" font-size="14.00">Status</text>
<text text-anchor="middle" x="1253.01" y="-997.7" font-family="Times,serif" font-size="14.00">build/flatten.sol</text>
<polyline fill="none" stroke="black" points="1200.87,-989.5 1305.14,-989.5 "/>
<text text-anchor="start" x="1208.87" y="-972.9" font-family="Times,serif" font-size="14.00">Pending: 0</text>
<text text-anchor="start" x="1208.87" y="-956.1" font-family="Times,serif" font-size="14.00">Approved: 1</text>
<text text-anchor="start" x="1208.87" y="-939.3" font-family="Times,serif" font-size="14.00">Rejected: 2</text>
</g>
<!-- 6&#45;&gt;4 -->
<g id="edge5" class="edge">
<title>6&#45;&gt;4</title>
<path fill="none" stroke="black" d="M1279.76,-1048.07C1293.34,-1077.29 1310.41,-1114.02 1326.87,-1149.44"/>
<polygon fill="black" stroke="black" points="1326.89,-1149.49 1333.05,-1153.25 1331.95,-1160.38 1325.79,-1156.62 1326.89,-1149.49"/>
</g>
<!-- 7&#45;&gt;2 -->
<g id="edge11" class="edge">
<title>7&#45;&gt;2</title>
<path fill="none" stroke="black" stroke-dasharray="5,2" d="M1385.91,-755.86C1352.83,-779.14 1314.27,-802.91 1276.01,-819 1202,-850.11 1175.69,-831.26 1099.01,-855 1097.73,-855.4 1096.45,-855.8 1095.16,-856.2"/>
<polygon fill="black" stroke="black" points="1093.75,-852.98 1085.29,-859.35 1095.88,-859.64 1093.75,-852.98"/>
</g>
<!-- 7&#45;&gt;3 -->
<g id="edge12" class="edge">
<title>7&#45;&gt;3</title>
<path fill="none" stroke="black" stroke-dasharray="5,2" d="M1377.61,-755.72C1345.87,-777.43 1310.19,-800.32 1276.01,-819 1240.36,-838.48 1219.92,-825.49 1192.01,-855 1104.57,-947.44 1189.14,-1039.5 1094.01,-1124 1041.78,-1170.39 1004.4,-1130.65 941.01,-1160 911.41,-1173.7 881.87,-1193.46 856.48,-1212.83"/>
<polygon fill="black" stroke="black" points="854.15,-1210.21 848.39,-1219.1 858.44,-1215.74 854.15,-1210.21"/>
</g>
<!-- 7&#45;&gt;4 -->
<g id="edge6" class="edge">
<title>7&#45;&gt;4</title>
<path fill="none" stroke="black" d="M1462.72,-755.98C1444.97,-854.22 1417.38,-1028.62 1400.4,-1148.32"/>
<polygon fill="black" stroke="black" points="1400.36,-1148.57 1403.49,-1155.07 1398.69,-1160.45 1395.57,-1153.95 1400.36,-1148.57"/>
</g>
<!-- 7&#45;&gt;5 -->
<g id="edge9" class="edge">
<title>7&#45;&gt;5</title>
<path fill="none" stroke="black" stroke-dasharray="5,2" d="M1566.82,-755.75C1718.4,-892.74 1997.59,-1190 1831.01,-1395.4 1783.5,-1453.98 1559.09,-1477.42 1448.26,-1485.54"/>
<polygon fill="black" stroke="black" points="1447.94,-1482.06 1438.22,-1486.26 1448.44,-1489.04 1447.94,-1482.06"/>
</g>
<!-- 7&#45;&gt;6 -->
<g id="edge10" class="edge">
<title>7&#45;&gt;6</title>
<path fill="none" stroke="black" stroke-dasharray="5,2" d="M1424.3,-755.82C1386.88,-806.64 1337.72,-873.42 1301.67,-922.4"/>
<polygon fill="black" stroke="black" points="1298.66,-920.59 1295.55,-930.72 1304.29,-924.74 1298.66,-920.59"/>
</g>
<!-- 8 -->
<g id="node9" class="node">
<title>8</title>
<polygon fill="#f2f2f2" stroke="black" points="810.87,-651.3 810.87,-709.7 915.14,-709.7 915.14,-651.3 810.87,-651.3"/>
<text text-anchor="middle" x="863.01" y="-693.1" font-family="Times,serif" font-size="14.00">&lt;&lt;Interface&gt;&gt;</text>
<text text-anchor="middle" x="863.01" y="-676.3" font-family="Times,serif" font-size="14.00">ICommon</text>
<text text-anchor="middle" x="863.01" y="-659.5" font-family="Times,serif" font-size="14.00">build/flatten.sol</text>
</g>
<!-- 9 -->
<g id="node10" class="node">
<title>9</title>
<polygon fill="#f2f2f2" stroke="black" points="452.52,-212.7 452.52,-505.5 881.49,-505.5 881.49,-212.7 452.52,-212.7"/>
<text text-anchor="middle" x="667.01" y="-488.9" font-family="Times,serif" font-size="14.00">&lt;&lt;Abstract&gt;&gt;</text>
<text text-anchor="middle" x="667.01" y="-472.1" font-family="Times,serif" font-size="14.00">BaseRegistry</text>
<text text-anchor="middle" x="667.01" y="-455.3" font-family="Times,serif" font-size="14.00">build/flatten.sol</text>
<polyline fill="none" stroke="black" points="452.52,-447.1 881.49,-447.1 "/>
<text text-anchor="start" x="460.52" y="-430.5" font-family="Times,serif" font-size="14.00">Internal:</text>
<text text-anchor="start" x="460.52" y="-413.7" font-family="Times,serif" font-size="14.00"> &#160;&#160;recipients: mapping(uint256=&gt;Recipient)</text>
<text text-anchor="start" x="460.52" y="-396.9" font-family="Times,serif" font-size="14.00">Public:</text>
<text text-anchor="start" x="460.52" y="-380.1" font-family="Times,serif" font-size="14.00"> &#160;&#160;maxRecipients: uint256</text>
<text text-anchor="start" x="460.52" y="-363.3" font-family="Times,serif" font-size="14.00"> &#160;&#160;recipientCount: uint256</text>
<text text-anchor="start" x="460.52" y="-346.5" font-family="Times,serif" font-size="14.00"> &#160;&#160;metadataUrl: bytes32</text>
<polyline fill="none" stroke="black" points="452.52,-338.3 881.49,-338.3 "/>
<text text-anchor="start" x="460.52" y="-321.7" font-family="Times,serif" font-size="14.00">Public:</text>
<text text-anchor="start" x="460.52" y="-304.9" font-family="Times,serif" font-size="14.00"> &#160;&#160;&#160;constructor(max: uint256, url: bytes32, ownerAddress: address)</text>
<text text-anchor="start" x="460.52" y="-288.1" font-family="Times,serif" font-size="14.00"> &#160;&#160;&#160;getRegistryMetadataUrl(): bytes32</text>
<text text-anchor="start" x="460.52" y="-271.3" font-family="Times,serif" font-size="14.00"> &#160;&#160;&#160;addRecipient(recipient: Recipient): uint256 &lt;&lt;onlyOwner&gt;&gt;</text>
<text text-anchor="start" x="460.52" y="-254.5" font-family="Times,serif" font-size="14.00"> &#160;&#160;&#160;removeRecipient(index: uint256) &lt;&lt;onlyOwner&gt;&gt;</text>
<text text-anchor="start" x="460.52" y="-237.7" font-family="Times,serif" font-size="14.00"> &#160;&#160;&#160;changeRecipient(index: uint256, recipient: Recipient) &lt;&lt;onlyOwner&gt;&gt;</text>
<text text-anchor="start" x="460.52" y="-220.9" font-family="Times,serif" font-size="14.00"> &#160;&#160;&#160;getRecipient(index: uint256): Recipient</text>
</g>
<!-- 9&#45;&gt;1 -->
<g id="edge13" class="edge">
<title>9&#45;&gt;1</title>
<path fill="none" stroke="black" d="M579.44,-505.78C577.32,-509.3 575.2,-512.83 573.08,-516.36"/>
<polygon fill="none" stroke="black" points="563.91,-511.23 557.45,-542.35 581.91,-522.05 563.91,-511.23"/>
</g>
<!-- 9&#45;&gt;2 -->
<g id="edge14" class="edge">
<title>9&#45;&gt;2</title>
<path fill="none" stroke="black" stroke-dasharray="5,2" d="M747.07,-505.72C751.71,-517.77 755.79,-529.95 759.01,-542 783.47,-633.61 790.06,-739.45 790.25,-825.09"/>
<polygon fill="none" stroke="black" points="779.75,-825.3 790.06,-855.36 800.75,-825.43 779.75,-825.3"/>
</g>
<!-- 9&#45;&gt;3 -->
<g id="edge16" class="edge">
<title>9&#45;&gt;3</title>
<path fill="none" stroke="black" d="M718.58,-505.56C721.56,-517.78 724.11,-530.03 726.01,-542 735.62,-602.8 766.36,-772.52 726.01,-819 651.26,-905.09 546.76,-768.91 472.01,-855 432.82,-900.14 440.4,-1073.26 472.01,-1124 522.62,-1205.23 630.45,-1244.47 704.83,-1262.54"/>
<polygon fill="black" stroke="black" points="704.1,-1265.97 714.63,-1264.85 705.7,-1259.15 704.1,-1265.97"/>
</g>
<!-- 9&#45;&gt;8 -->
<g id="edge15" class="edge">
<title>9&#45;&gt;8</title>
<path fill="none" stroke="black" stroke-dasharray="5,2" d="M774.26,-505.57C782.21,-517.73 789.89,-529.97 797.01,-542 812.37,-567.99 827.15,-598.1 838.8,-623.51"/>
<polygon fill="none" stroke="black" points="829.3,-627.99 851.11,-651.11 848.48,-619.44 829.3,-627.99"/>
</g>
<!-- 10 -->
<g id="node11" class="node">
<title>10</title>
<polygon fill="#f2f2f2" stroke="black" points="137.5,-309.1 137.5,-409.1 396.52,-409.1 396.52,-309.1 137.5,-309.1"/>
<text text-anchor="middle" x="267.01" y="-392.5" font-family="Times,serif" font-size="14.00">&lt;&lt;Interface&gt;&gt;</text>
<text text-anchor="middle" x="267.01" y="-375.7" font-family="Times,serif" font-size="14.00">IEAS</text>
<text text-anchor="middle" x="267.01" y="-358.9" font-family="Times,serif" font-size="14.00">build/flatten.sol</text>
<polyline fill="none" stroke="black" points="137.5,-350.7 396.52,-350.7 "/>
<text text-anchor="start" x="145.5" y="-334.1" font-family="Times,serif" font-size="14.00">External:</text>
<text text-anchor="start" x="145.5" y="-317.3" font-family="Times,serif" font-size="14.00"> &#160;&#160;&#160;&#160;getAttestation(uid: bytes32): Attestation</text>
</g>
<!-- 11 -->
<g id="node12" class="node">
<title>11</title>
<polygon fill="#f2f2f2" stroke="black" points="67.11,-563.3 67.11,-797.7 214.91,-797.7 214.91,-563.3 67.11,-563.3"/>
<text text-anchor="middle" x="141.01" y="-781.1" font-family="Times,serif" font-size="14.00">&lt;&lt;Struct&gt;&gt;</text>
<text text-anchor="middle" x="141.01" y="-764.3" font-family="Times,serif" font-size="14.00">Attestation</text>
<text text-anchor="middle" x="141.01" y="-747.5" font-family="Times,serif" font-size="14.00">build/flatten.sol</text>
<polyline fill="none" stroke="black" points="67.11,-739.3 214.91,-739.3 "/>
<text text-anchor="start" x="75.11" y="-722.7" font-family="Times,serif" font-size="14.00">uid: bytes32</text>
<text text-anchor="start" x="75.11" y="-705.9" font-family="Times,serif" font-size="14.00">schema: bytes32</text>
<text text-anchor="start" x="75.11" y="-689.1" font-family="Times,serif" font-size="14.00">time: uint64</text>
<text text-anchor="start" x="75.11" y="-672.3" font-family="Times,serif" font-size="14.00">expirationTime: uint64</text>
<text text-anchor="start" x="75.11" y="-655.5" font-family="Times,serif" font-size="14.00">revocationTime: uint64</text>
<text text-anchor="start" x="75.11" y="-638.7" font-family="Times,serif" font-size="14.00">refUID: bytes32</text>
<text text-anchor="start" x="75.11" y="-621.9" font-family="Times,serif" font-size="14.00">recipient: address</text>
<text text-anchor="start" x="75.11" y="-605.1" font-family="Times,serif" font-size="14.00">attester: address</text>
<text text-anchor="start" x="75.11" y="-588.3" font-family="Times,serif" font-size="14.00">revocable: bool</text>
<text text-anchor="start" x="75.11" y="-571.5" font-family="Times,serif" font-size="14.00">data: bytes</text>
</g>
<!-- 10&#45;&gt;11 -->
<g id="edge18" class="edge">
<title>10&#45;&gt;11</title>
<path fill="none" stroke="black" stroke-dasharray="5,2" d="M242.56,-409.31C225.89,-447.85 203.51,-503.25 183.96,-553.86"/>
<polygon fill="black" stroke="black" points="180.67,-552.66 180.35,-563.25 187.2,-555.17 180.67,-552.66"/>
</g>
<!-- 11&#45;&gt;10 -->
<g id="edge17" class="edge">
<title>11&#45;&gt;10</title>
<path fill="none" stroke="black" d="M193.39,-563.25C212.95,-514.98 233.89,-460.97 248.5,-420.78"/>
<polygon fill="black" stroke="black" points="248.57,-420.6 246.84,-413.6 252.63,-409.31 254.36,-416.31 248.57,-420.6"/>
</g>
<!-- 12 -->
<g id="node13" class="node">
<title>12</title>
<polygon fill="#f2f2f2" stroke="black" points="13.28,-0.5 13.28,-175.7 520.73,-175.7 520.73,-0.5 13.28,-0.5"/>
<text text-anchor="middle" x="267.01" y="-159.1" font-family="Times,serif" font-size="14.00">EASRegistry</text>
<text text-anchor="middle" x="267.01" y="-142.3" font-family="Times,serif" font-size="14.00">build/flatten.sol</text>
<polyline fill="none" stroke="black" points="13.28,-134.1 520.73,-134.1 "/>
<text text-anchor="start" x="21.28" y="-117.5" font-family="Times,serif" font-size="14.00">Public:</text>
<text text-anchor="start" x="21.28" y="-100.7" font-family="Times,serif" font-size="14.00"> &#160;&#160;eas: IEAS</text>
<polyline fill="none" stroke="black" points="13.28,-92.5 520.73,-92.5 "/>
<text text-anchor="start" x="21.28" y="-75.9" font-family="Times,serif" font-size="14.00">External:</text>
<text text-anchor="start" x="21.28" y="-59.1" font-family="Times,serif" font-size="14.00"> &#160;&#160;&#160;addRecipients(recipients: Recipient[]) &lt;&lt;onlyOwner&gt;&gt;</text>
<text text-anchor="start" x="21.28" y="-42.3" font-family="Times,serif" font-size="14.00">Public:</text>
<text text-anchor="start" x="21.28" y="-25.5" font-family="Times,serif" font-size="14.00"> &#160;&#160;&#160;constructor(max: uint256, url: bytes32, easAddress: address, ownerAddress: address)</text>
<text text-anchor="start" x="21.28" y="-8.7" font-family="Times,serif" font-size="14.00"> &#160;&#160;&#160;getAttestation(id: bytes32): Attestation</text>
</g>
<!-- 12&#45;&gt;3 -->
<g id="edge21" class="edge">
<title>12&#45;&gt;3</title>
<path fill="none" stroke="black" stroke-dasharray="5,2" d="M118.59,-175.72C107.58,-186.8 97.76,-198.96 90.01,-212.2 -46.5,-445.22 -1.78,-555.64 58.01,-819 91.28,-965.56 88.21,-1028.21 204.01,-1124 350.53,-1245.2 583.27,-1271.16 704.21,-1276.1"/>
<polygon fill="black" stroke="black" points="704.38,-1279.61 714.5,-1276.49 704.64,-1272.62 704.38,-1279.61"/>
</g>
<!-- 12&#45;&gt;9 -->
<g id="edge19" class="edge">
<title>12&#45;&gt;9</title>
<path fill="none" stroke="black" d="M396.05,-175.88C406.26,-182.75 416.75,-189.8 427.4,-196.96"/>
<polygon fill="none" stroke="black" points="421.72,-205.8 452.47,-213.83 433.44,-188.37 421.72,-205.8"/>
</g>
<!-- 12&#45;&gt;10 -->
<g id="edge20" class="edge">
<title>12&#45;&gt;10</title>
<path fill="none" stroke="black" stroke-dasharray="5,2" d="M267.01,-176.07C267.01,-209.11 267.01,-246.54 267.01,-278.83"/>
<polygon fill="none" stroke="black" points="256.51,-279.06 267.01,-309.06 277.51,-279.06 256.51,-279.06"/>
</g>
<!-- 12&#45;&gt;11 -->
<g id="edge22" class="edge">
<title>12&#45;&gt;11</title>
<path fill="none" stroke="black" stroke-dasharray="5,2" d="M150.89,-175.93C141.76,-187.14 133.83,-199.27 128.01,-212.2 79.61,-319.7 90.32,-455.66 108.65,-553.17"/>
<polygon fill="black" stroke="black" points="105.23,-553.93 110.56,-563.08 112.1,-552.6 105.23,-553.93"/>
</g>
<!-- 13 -->
<g id="node14" class="node">
<title>13</title>
<polygon fill="#f2f2f2" stroke="black" points="1009.1,-613.7 1009.1,-747.3 1266.91,-747.3 1266.91,-613.7 1009.1,-613.7"/>
<text text-anchor="middle" x="1138.01" y="-730.7" font-family="Times,serif" font-size="14.00">&lt;&lt;Interface&gt;&gt;</text>
<text text-anchor="middle" x="1138.01" y="-713.9" font-family="Times,serif" font-size="14.00">IOwnable</text>
<text text-anchor="middle" x="1138.01" y="-697.1" font-family="Times,serif" font-size="14.00">build/flatten.sol</text>
<polyline fill="none" stroke="black" points="1009.1,-688.9 1266.91,-688.9 "/>
<text text-anchor="start" x="1017.1" y="-672.3" font-family="Times,serif" font-size="14.00">External:</text>
<text text-anchor="start" x="1017.1" y="-655.5" font-family="Times,serif" font-size="14.00"> &#160;&#160;&#160;&#160;transferOwnership(newOwner: address)</text>
<text text-anchor="start" x="1017.1" y="-638.7" font-family="Times,serif" font-size="14.00"> &#160;&#160;&#160;&#160;renounceOwnership()</text>
<text text-anchor="start" x="1017.1" y="-621.9" font-family="Times,serif" font-size="14.00"> &#160;&#160;&#160;&#160;owner(): address</text>
</g>
<!-- 14 -->
<g id="node15" class="node">
<title>14</title>
<polygon fill="#f2f2f2" stroke="black" points="899.02,-229.5 899.02,-488.7 1225,-488.7 1225,-229.5 899.02,-229.5"/>
<text text-anchor="middle" x="1062.01" y="-472.1" font-family="Times,serif" font-size="14.00">RegistryManager</text>
<text text-anchor="middle" x="1062.01" y="-455.3" font-family="Times,serif" font-size="14.00">build/flatten.sol</text>
<polyline fill="none" stroke="black" points="899.02,-447.1 1225,-447.1 "/>
<text text-anchor="start" x="907.02" y="-430.5" font-family="Times,serif" font-size="14.00">Internal:</text>
<text text-anchor="start" x="907.02" y="-413.7" font-family="Times,serif" font-size="14.00"> &#160;&#160;requests: mapping(uint256=&gt;Request)</text>
<text text-anchor="start" x="907.02" y="-396.9" font-family="Times,serif" font-size="14.00">Public:</text>
<text text-anchor="start" x="907.02" y="-380.1" font-family="Times,serif" font-size="14.00"> &#160;&#160;requestCount: uint256</text>
<polyline fill="none" stroke="black" points="899.02,-371.9 1225,-371.9 "/>
<text text-anchor="start" x="907.02" y="-355.3" font-family="Times,serif" font-size="14.00">Public:</text>
<text text-anchor="start" x="907.02" y="-338.5" font-family="Times,serif" font-size="14.00"> &#160;&#160;&#160;&lt;&lt;modifier&gt;&gt; isValidRequest(request: Request)</text>
<text text-anchor="start" x="907.02" y="-321.7" font-family="Times,serif" font-size="14.00"> &#160;&#160;&#160;&lt;&lt;modifier&gt;&gt; isPending(index: uint256)</text>
<text text-anchor="start" x="907.02" y="-304.9" font-family="Times,serif" font-size="14.00"> &#160;&#160;&#160;constructor()</text>
<text text-anchor="start" x="907.02" y="-288.1" font-family="Times,serif" font-size="14.00"> &#160;&#160;&#160;process(request: Request) &lt;&lt;isValidRequest&gt;&gt;</text>
<text text-anchor="start" x="907.02" y="-271.3" font-family="Times,serif" font-size="14.00"> &#160;&#160;&#160;approve(index: uint256) &lt;&lt;onlyOwner, isPending&gt;&gt;</text>
<text text-anchor="start" x="907.02" y="-254.5" font-family="Times,serif" font-size="14.00"> &#160;&#160;&#160;reject(index: uint256) &lt;&lt;onlyOwner, isPending&gt;&gt;</text>
<text text-anchor="start" x="907.02" y="-237.7" font-family="Times,serif" font-size="14.00"> &#160;&#160;&#160;getRequest(index: uint256): (request: Request)</text>
</g>
<!-- 14&#45;&gt;1 -->
<g id="edge23" class="edge">
<title>14&#45;&gt;1</title>
<path fill="none" stroke="black" d="M916.04,-488.99C907.42,-495 898.71,-500.71 890.01,-506 853.89,-527.94 841.04,-525.81 802.01,-542 783.66,-549.61 764.75,-557.48 745.7,-565.44"/>
<polygon fill="none" stroke="black" points="741.38,-555.86 717.75,-577.12 749.48,-575.24 741.38,-555.86"/>
</g>
<!-- 14&#45;&gt;2 -->
<g id="edge28" class="edge">
<title>14&#45;&gt;2</title>
<path fill="none" stroke="black" stroke-dasharray="5,2" d="M988.31,-488.75C980.22,-506.27 972.82,-524.32 967.01,-542 928.09,-660.35 975.26,-705.44 924.01,-819 919.77,-828.39 914.87,-837.67 909.49,-846.77"/>
<polygon fill="black" stroke="black" points="906.42,-845.08 904.18,-855.44 912.39,-848.74 906.42,-845.08"/>
</g>
<!-- 14&#45;&gt;4 -->
<g id="edge24" class="edge">
<title>14&#45;&gt;4</title>
<path fill="none" stroke="black" stroke-dasharray="5,2" d="M1205.32,-488.79C1213.52,-494.81 1221.77,-500.59 1230.01,-506 1260.91,-526.3 1283.63,-511.83 1305.01,-542 1321.79,-565.68 1355.3,-922.79 1373.52,-1130.25"/>
<polygon fill="none" stroke="black" points="1363.08,-1131.36 1376.15,-1160.34 1384,-1129.54 1363.08,-1131.36"/>
</g>
<!-- 14&#45;&gt;5 -->
<g id="edge29" class="edge">
<title>14&#45;&gt;5</title>
<path fill="none" stroke="black" stroke-dasharray="5,2" d="M1012.33,-488.93C1007.25,-506.54 1002.9,-524.56 1000.01,-542 979.88,-663.45 930.24,-717.57 1000.01,-819 1025.36,-855.86 1068.65,-818.14 1094.01,-855 1161.76,-953.5 1168.24,-1030.28 1094.01,-1124 1050.64,-1178.76 984.38,-1105.24 941.01,-1160 876.05,-1242.01 875.11,-1314.14 941.01,-1395.4 988.51,-1453.98 1212.92,-1477.42 1323.76,-1485.54"/>
<polygon fill="black" stroke="black" points="1323.58,-1489.04 1333.8,-1486.26 1324.07,-1482.06 1323.58,-1489.04"/>
</g>
<!-- 14&#45;&gt;6 -->
<g id="edge30" class="edge">
<title>14&#45;&gt;6</title>
<path fill="none" stroke="black" stroke-dasharray="5,2" d="M1225.18,-470.54C1245.75,-491.75 1263.83,-515.67 1276.01,-542 1333.38,-666.05 1300.94,-830.69 1275.1,-921.4"/>
<polygon fill="black" stroke="black" points="1271.74,-920.43 1272.31,-931.01 1278.46,-922.39 1271.74,-920.43"/>
</g>
<!-- 14&#45;&gt;7 -->
<g id="edge26" class="edge">
<title>14&#45;&gt;7</title>
<path fill="none" stroke="black" d="M1225.32,-454.95C1266.4,-481.3 1309.45,-511.2 1347.01,-542 1367.54,-558.84 1388.17,-578.63 1406.82,-597.87"/>
<polygon fill="black" stroke="black" points="1404.42,-600.42 1413.87,-605.21 1409.47,-595.58 1404.42,-600.42"/>
</g>
<!-- 14&#45;&gt;8 -->
<g id="edge25" class="edge">
<title>14&#45;&gt;8</title>
<path fill="none" stroke="black" stroke-dasharray="5,2" d="M963.49,-488.78C951.37,-506.33 939.56,-524.38 929.01,-542 913.5,-567.9 898.71,-598.01 887.08,-623.43"/>
<polygon fill="none" stroke="black" points="877.39,-619.38 874.82,-651.06 896.59,-627.9 877.39,-619.38"/>
</g>
<!-- 14&#45;&gt;13 -->
<g id="edge27" class="edge">
<title>14&#45;&gt;13</title>
<path fill="none" stroke="black" stroke-dasharray="5,2" d="M1092.7,-489.09C1101.96,-528.01 1111.83,-569.47 1119.98,-603.72"/>
<polygon fill="black" stroke="black" points="1116.62,-604.73 1122.34,-613.65 1123.43,-603.11 1116.62,-604.73"/>
</g>
<!-- 15 -->
<g id="node16" class="node">
<title>15</title>
<polygon fill="#f2f2f2" stroke="black" points="853.92,-8.9 853.92,-167.3 1270.1,-167.3 1270.1,-8.9 853.92,-8.9"/>
<text text-anchor="middle" x="1062.01" y="-150.7" font-family="Times,serif" font-size="14.00">EASRegistryManager</text>
<text text-anchor="middle" x="1062.01" y="-133.9" font-family="Times,serif" font-size="14.00">build/flatten.sol</text>
<polyline fill="none" stroke="black" points="853.92,-125.7 1270.1,-125.7 "/>
<text text-anchor="start" x="861.92" y="-109.1" font-family="Times,serif" font-size="14.00">Public:</text>
<text text-anchor="start" x="861.92" y="-92.3" font-family="Times,serif" font-size="14.00"> &#160;&#160;eas: IEAS</text>
<polyline fill="none" stroke="black" points="853.92,-84.1 1270.1,-84.1 "/>
<text text-anchor="start" x="861.92" y="-67.5" font-family="Times,serif" font-size="14.00">Public:</text>
<text text-anchor="start" x="861.92" y="-50.7" font-family="Times,serif" font-size="14.00"> &#160;&#160;&#160;&lt;&lt;modifier&gt;&gt; onlyWithAttestation(request: Request)</text>
<text text-anchor="start" x="861.92" y="-33.9" font-family="Times,serif" font-size="14.00"> &#160;&#160;&#160;constructor(easAddress: address)</text>
<text text-anchor="start" x="861.92" y="-17.1" font-family="Times,serif" font-size="14.00"> &#160;&#160;&#160;process(request: Request) &lt;&lt;isValidRequest, onlyWithAttestation&gt;&gt;</text>
</g>
<!-- 15&#45;&gt;5 -->
<g id="edge33" class="edge">
<title>15&#45;&gt;5</title>
<path fill="none" stroke="black" stroke-dasharray="5,2" d="M1270.33,-146.26C1503.79,-224.5 1850.01,-389.43 1850.01,-679.5 1850.01,-679.5 1850.01,-679.5 1850.01,-990.5 1850.01,-1170.65 1947.73,-1258.18 1831.01,-1395.4 1782.2,-1452.77 1558.97,-1476.78 1448.41,-1485.29"/>
<polygon fill="black" stroke="black" points="1448.11,-1481.81 1438.4,-1486.05 1448.63,-1488.79 1448.11,-1481.81"/>
</g>
<!-- 15&#45;&gt;7 -->
<g id="edge35" class="edge">
<title>15&#45;&gt;7</title>
<path fill="none" stroke="black" stroke-dasharray="5,2" d="M1186.87,-167.63C1203.83,-181.29 1220.14,-196.27 1234.01,-212.2 1335.97,-329.33 1410.33,-496.26 1448.93,-595.67"/>
<polygon fill="black" stroke="black" points="1445.69,-597 1452.56,-605.07 1452.23,-594.48 1445.69,-597"/>
</g>
<!-- 15&#45;&gt;10 -->
<g id="edge32" class="edge">
<title>15&#45;&gt;10</title>
<path fill="none" stroke="black" d="M853.79,-122.1C678.48,-150.93 450.16,-191.35 411.01,-212.2 370.9,-233.56 334.98,-269.91 309.05,-300.98"/>
<polygon fill="black" stroke="black" points="306.31,-298.8 302.67,-308.75 311.72,-303.24 306.31,-298.8"/>
</g>
<!-- 15&#45;&gt;11 -->
<g id="edge34" class="edge">
<title>15&#45;&gt;11</title>
<path fill="none" stroke="black" stroke-dasharray="5,2" d="M853.78,-118.38C685.63,-144 472.43,-181.77 444.01,-212.2 354.12,-308.41 495.95,-409.85 406.01,-506 349.68,-566.22 291.52,-494.66 224.01,-542 218.26,-546.03 212.83,-550.6 207.73,-555.57"/>
<polygon fill="black" stroke="black" points="204.89,-553.47 200.48,-563.11 209.93,-558.33 204.89,-553.47"/>
</g>
<!-- 15&#45;&gt;14 -->
<g id="edge31" class="edge">
<title>15&#45;&gt;14</title>
<path fill="none" stroke="black" d="M1062.01,-167.63C1062.01,-177.78 1062.01,-188.44 1062.01,-199.32"/>
<polygon fill="none" stroke="black" points="1051.51,-199.37 1062.01,-229.37 1072.51,-199.37 1051.51,-199.37"/>
</g>
</g>
</svg>
